if (_typeface_js && _typeface_js.loadFace) _typeface_js.loadFace({"glyphs":{"¦":{"x_min":340,"x_max":494,"ha":836,"o":"m 494 277 l 494 -237 l 340 -237 l 340 277 l 494 277 m 494 971 l 494 457 l 340 457 l 340 971 l 494 971 "},"Ž":{"x_min":78,"x_max":787,"ha":836,"o":"m 93 1013 l 777 1013 l 777 847 l 308 176 l 787 176 l 787 0 l 78 0 l 78 165 l 532 837 l 93 837 l 93 1013 m 312 1109 l 163 1288 l 283 1288 l 418 1178 l 553 1288 l 674 1288 l 522 1109 l 312 1109 "},"Á":{"x_min":22,"x_max":814,"ha":836,"o":"m 417 829 l 323 415 l 512 415 l 417 829 m 295 1013 l 540 1013 l 814 0 l 613 0 l 551 250 l 283 250 l 222 0 l 22 0 l 295 1013 m 453 1288 l 646 1288 l 451 1109 l 318 1109 l 453 1288 "},"Î":{"x_min":117,"x_max":719,"ha":836,"o":"m 117 837 l 117 1013 l 719 1013 l 719 837 l 518 837 l 518 176 l 719 176 l 719 0 l 117 0 l 117 176 l 318 176 l 318 837 l 117 837 m 312 1288 l 522 1288 l 674 1109 l 553 1109 l 418 1218 l 283 1109 l 163 1109 l 312 1288 "},"e":{"x_min":62,"x_max":779,"ha":836,"o":"m 747 37 q 605 -5 677 8 q 454 -20 534 -20 q 162 82 263 -20 q 62 376 62 184 q 159 670 62 562 q 423 778 256 778 q 685 677 592 778 q 779 395 779 577 l 779 315 l 264 315 q 316 181 264 225 q 472 137 369 137 q 607 156 541 137 q 747 219 674 176 l 747 37 m 579 464 q 538 583 577 542 q 423 624 499 624 q 314 582 354 624 q 266 463 273 540 l 579 464 "},"»":{"x_min":131,"x_max":757,"ha":836,"o":"m 131 718 l 449 451 l 449 362 l 131 95 l 131 256 l 318 406 l 131 556 l 131 718 m 439 718 l 757 451 l 757 362 l 439 95 l 439 256 l 626 406 l 439 556 l 439 718 "},"∆":{"x_min":-4,"x_max":842,"ha":836,"o":"m 604 150 l 417 706 l 232 150 l 604 150 m 330 965 l 505 965 l 842 0 l -4 0 l 330 965 "},"ò":{"x_min":66,"x_max":769,"ha":836,"o":"m 326 1059 l 518 856 l 384 856 l 135 1059 l 326 1059 m 417 617 q 305 554 346 617 q 265 379 265 491 q 305 203 265 266 q 417 141 346 141 q 529 203 488 141 q 570 379 570 266 q 529 554 570 491 q 417 617 488 617 m 66 379 q 161 670 66 562 q 417 778 256 778 q 673 670 578 778 q 769 379 769 562 q 673 87 769 195 q 417 -20 578 -20 q 161 87 256 -20 q 66 379 66 195 "},"^":{"x_min":39,"x_max":798,"ha":836,"o":"m 501 1013 l 798 635 l 633 635 l 418 839 l 203 635 l 39 635 l 335 1013 l 501 1013 "},"«":{"x_min":81,"x_max":707,"ha":836,"o":"m 707 718 l 707 556 l 519 406 l 707 256 l 707 95 l 389 362 l 389 451 l 707 718 m 399 718 l 399 556 l 211 406 l 399 256 l 399 95 l 81 362 l 81 451 l 399 718 "},"∙":{"x_min":305,"x_max":532,"ha":836,"o":"m 305 607 l 532 607 l 532 359 l 305 359 l 305 607 "},"í":{"x_min":97,"x_max":791,"ha":836,"o":"m 150 760 l 544 760 l 544 153 l 791 153 l 791 0 l 97 0 l 97 153 l 345 153 l 345 607 l 150 607 l 150 760 m 509 1111 l 701 1111 l 451 856 l 318 856 l 509 1111 "},"ˆ":{"x_min":163,"x_max":674,"ha":836,"o":"m 336 1111 l 500 1111 l 674 856 l 553 856 l 418 1008 l 283 856 l 163 856 l 336 1111 "},"µ":{"x_min":118,"x_max":806,"ha":836,"o":"m 118 -290 l 118 760 l 313 760 l 313 298 q 340 182 313 221 q 424 143 368 143 q 505 181 478 143 q 533 298 533 220 l 533 760 l 729 760 l 729 233 q 738 164 729 185 q 768 143 747 143 q 786 146 778 143 q 806 158 795 150 l 806 10 q 751 -12 776 -5 q 702 -20 726 -20 q 622 5 653 -20 q 573 87 592 30 q 511 7 548 34 q 426 -20 474 -20 q 358 -4 386 -20 q 313 44 330 11 l 314 -290 l 118 -290 "},"č":{"x_min":114,"x_max":743,"ha":836,"o":"m 720 38 q 612 -5 669 9 q 487 -20 554 -20 q 213 85 312 -20 q 114 378 114 191 q 213 672 114 566 q 489 779 313 779 q 607 764 550 779 q 720 721 663 750 l 720 539 q 624 596 676 576 q 516 616 572 616 q 367 554 419 616 q 315 378 315 492 q 367 203 315 264 q 516 143 419 143 q 624 162 574 143 q 720 220 675 181 l 720 38 m 405 856 l 232 1111 l 352 1111 l 487 957 l 622 1111 l 743 1111 l 569 856 l 405 856 "},"’":{"x_min":293,"x_max":572,"ha":836,"o":"m 359 1055 l 572 1055 l 572 871 l 439 612 l 293 612 l 359 871 l 359 1055 "},"-":{"x_min":204,"x_max":632,"ha":836,"o":"m 204 498 l 632 498 l 632 301 l 204 301 l 204 498 "},"Q":{"x_min":62,"x_max":773,"ha":836,"o":"m 444 -15 q 428 -18 434 -17 q 415 -20 421 -20 q 151 112 241 -20 q 62 505 62 245 q 151 898 62 765 q 417 1031 241 1031 q 683 898 593 1031 q 773 505 773 765 q 730 206 773 326 q 606 34 687 85 l 732 -89 l 595 -191 l 444 -15 m 417 851 q 305 769 340 851 q 270 505 270 687 q 305 241 270 323 q 417 160 340 160 q 529 241 494 160 q 565 505 565 323 q 529 769 565 687 q 417 851 494 851 "},"M":{"x_min":58,"x_max":778,"ha":836,"o":"m 58 1013 l 296 1013 l 417 568 l 538 1013 l 778 1013 l 778 0 l 606 0 l 606 811 l 498 368 l 338 368 l 230 811 l 230 0 l 58 0 l 58 1013 "},"œ":{"x_min":9,"x_max":820,"ha":836,"o":"m 820 325 l 515 325 q 548 175 515 226 q 646 124 582 124 q 727 143 687 124 q 809 203 768 163 l 809 38 q 733 -5 775 8 q 634 -20 691 -20 q 519 4 567 -20 q 439 79 471 29 q 365 3 410 27 q 252 -20 320 -20 q 66 73 123 -20 q 9 379 9 167 q 66 685 9 592 q 252 778 123 778 q 361 758 319 778 q 431 693 403 738 q 494 756 450 734 q 600 778 538 778 q 770 697 721 778 q 820 411 820 616 l 820 325 m 667 468 l 667 491 q 649 602 667 570 q 590 634 632 634 q 531 601 548 634 q 515 483 515 569 l 515 468 l 667 468 m 352 379 q 332 588 352 543 q 260 634 312 634 q 187 588 207 634 q 168 379 168 543 q 187 169 168 214 q 260 124 207 124 q 332 169 312 124 q 352 379 352 215 "},"{":{"x_min":119,"x_max":714,"ha":836,"o":"m 714 -97 l 714 -227 l 612 -227 q 386 -176 443 -227 q 329 23 329 -126 l 329 169 q 292 311 329 272 q 161 350 256 350 l 119 350 l 119 480 l 161 480 q 292 518 256 480 q 329 660 329 557 l 329 805 q 386 1005 329 955 q 612 1055 443 1055 l 714 1055 l 714 926 l 630 926 q 536 897 560 926 q 513 772 513 869 l 513 630 q 479 473 513 519 q 360 415 446 428 q 479 354 446 401 q 513 197 513 308 l 513 58 q 536 -68 513 -39 q 630 -97 560 -97 l 714 -97 "},"¼":{"x_min":32,"x_max":775,"ha":836,"o":"m 38 657 l 191 657 l 191 1025 l 42 996 l 42 1097 l 192 1125 l 324 1125 l 324 657 l 477 657 l 477 559 l 38 559 l 38 657 m 57 339 l 32 419 l 749 598 l 775 517 l 57 339 m 558 259 l 388 36 l 558 36 l 558 259 m 545 383 l 684 383 l 684 36 l 758 36 l 758 -61 l 684 -61 l 684 -183 l 558 -183 l 558 -61 l 291 -61 l 291 48 l 545 383 "},"#":{"x_min":1,"x_max":833,"ha":836,"o":"m 479 998 l 414 744 l 552 744 l 616 998 l 767 998 l 702 744 l 833 744 l 833 598 l 666 598 l 616 399 l 755 399 l 755 253 l 580 253 l 516 0 l 366 0 l 430 253 l 291 253 l 227 0 l 77 0 l 141 253 l 1 253 l 1 399 l 177 399 l 227 598 l 78 598 l 78 744 l 264 744 l 328 998 l 479 998 m 516 598 l 377 598 l 327 399 l 466 399 l 516 598 "},"Ê":{"x_min":114,"x_max":745,"ha":836,"o":"m 745 0 l 114 0 l 114 1013 l 745 1013 l 745 837 l 314 837 l 314 618 l 704 618 l 704 442 l 314 442 l 314 176 l 745 176 l 745 0 m 333 1288 l 543 1288 l 695 1109 l 574 1109 l 439 1218 l 304 1109 l 184 1109 l 333 1288 "},")":{"x_min":210,"x_max":577,"ha":836,"o":"m 210 1055 l 364 1055 q 524 746 471 900 q 577 436 577 593 q 524 125 577 277 q 364 -184 472 -27 l 210 -184 q 342 132 299 -20 q 386 436 386 285 q 342 740 386 588 q 210 1055 299 892 "},"Å":{"x_min":22,"x_max":814,"ha":836,"o":"m 552 963 l 814 0 l 613 0 l 551 250 l 283 250 l 222 0 l 22 0 l 283 963 q 239 1021 253 988 q 225 1095 225 1054 q 281 1232 225 1175 q 417 1289 338 1289 q 554 1232 497 1289 q 611 1095 611 1175 q 596 1021 611 1053 q 552 963 582 989 m 329 1096 q 355 1033 329 1059 q 417 1007 381 1007 q 480 1033 454 1007 q 507 1096 507 1059 q 480 1158 507 1132 q 417 1185 454 1185 q 355 1158 381 1185 q 329 1096 329 1132 m 417 829 l 323 415 l 512 415 l 417 829 "},"¸":{"x_min":249,"x_max":555,"ha":836,"o":"m 479 0 q 536 -78 517 -42 q 555 -145 555 -113 q 513 -241 555 -210 q 385 -272 471 -272 q 319 -267 353 -272 q 249 -254 284 -263 l 249 -148 q 307 -165 279 -159 q 360 -172 336 -172 q 421 -156 399 -172 q 444 -113 444 -140 q 429 -68 444 -96 q 384 0 415 -40 l 479 0 "},"a":{"x_min":64,"x_max":752,"ha":836,"o":"m 475 357 q 320 328 364 357 q 276 230 276 299 q 306 148 276 179 q 389 118 337 118 q 511 177 468 118 q 555 343 555 236 l 555 357 l 475 357 m 752 433 l 752 0 l 555 0 l 555 84 q 462 7 519 34 q 338 -20 406 -20 q 136 48 208 -20 q 64 240 64 117 q 150 436 64 373 q 417 500 236 500 l 555 500 l 555 532 q 520 606 555 581 q 417 631 485 631 q 278 612 345 631 q 139 555 211 594 l 139 725 q 273 765 204 752 q 417 778 341 778 q 677 702 602 778 q 752 433 752 627 "},"=":{"x_min":60,"x_max":777,"ha":836,"o":"m 60 361 l 777 361 l 777 200 l 60 200 l 60 361 m 60 669 l 777 669 l 777 510 l 60 510 l 60 669 "},"˚":{"x_min":225,"x_max":611,"ha":836,"o":"m 225 1040 q 281 1177 225 1120 q 417 1234 337 1234 q 554 1177 498 1234 q 611 1040 611 1120 q 554 903 611 960 q 417 847 498 847 q 281 903 337 847 q 225 1040 225 960 m 336 1040 q 360 976 336 1002 q 417 951 384 951 q 475 977 451 951 q 500 1040 500 1003 q 475 1103 500 1077 q 417 1130 451 1130 q 360 1103 384 1130 q 336 1040 336 1077 "},"ú":{"x_min":109,"x_max":720,"ha":836,"o":"m 109 265 l 109 760 l 308 760 l 308 295 q 330 178 308 213 q 407 143 353 143 q 490 190 460 143 q 521 323 521 238 l 521 760 l 720 760 l 720 0 l 521 0 l 521 112 q 449 14 500 49 q 327 -20 399 -20 q 164 51 219 -20 q 109 265 109 123 m 509 1111 l 701 1111 l 451 856 l 318 856 l 509 1111 "},"¯":{"x_min":204,"x_max":632,"ha":836,"o":"m 204 1055 l 632 1055 l 632 927 l 204 927 l 204 1055 "},"Z":{"x_min":78,"x_max":787,"ha":836,"o":"m 93 1013 l 777 1013 l 777 847 l 308 176 l 787 176 l 787 0 l 78 0 l 78 165 l 532 837 l 93 837 l 93 1013 "},"u":{"x_min":109,"x_max":720,"ha":836,"o":"m 109 265 l 109 760 l 308 760 l 308 295 q 330 178 308 213 q 407 143 353 143 q 490 190 460 143 q 521 323 521 238 l 521 760 l 720 760 l 720 0 l 521 0 l 521 112 q 449 14 500 49 q 327 -20 399 -20 q 164 51 219 -20 q 109 265 109 123 "},"k":{"x_min":118,"x_max":813,"ha":836,"o":"m 118 1055 l 317 1055 l 317 501 l 555 760 l 796 760 l 509 476 l 813 0 l 593 0 l 384 355 l 317 290 l 317 0 l 118 0 l 118 1055 "},"Ù":{"x_min":72,"x_max":764,"ha":836,"o":"m 72 373 l 72 1013 l 272 1013 l 272 323 q 310 204 272 247 q 418 161 349 161 q 525 204 486 161 q 564 323 564 247 l 564 1013 l 764 1013 l 764 373 q 681 73 764 167 q 418 -20 599 -20 q 154 73 236 -20 q 72 373 72 167 m 384 1288 l 520 1109 l 386 1109 l 192 1288 l 384 1288 "},"¢":{"x_min":100,"x_max":703,"ha":836,"o":"m 703 731 l 703 549 q 624 594 665 577 q 541 616 583 611 l 541 146 q 624 165 584 149 q 703 211 665 181 l 703 29 q 627 -2 667 9 q 541 -17 586 -13 l 541 -212 l 445 -212 l 445 -17 q 192 104 285 -2 q 100 380 100 211 q 192 659 100 553 q 445 777 285 766 l 445 972 l 541 972 l 541 777 q 622 762 582 773 q 703 731 661 751 m 445 146 l 445 616 q 325 545 367 606 q 284 381 284 484 q 326 212 284 275 q 445 146 369 150 "},"Ş":{"x_min":87,"x_max":752,"ha":836,"o":"m 345 444 q 140 565 194 501 q 87 735 87 628 q 175 952 87 873 q 417 1031 263 1031 q 556 1015 486 1031 q 695 968 626 999 l 695 773 q 564 841 630 818 q 432 865 497 865 q 321 835 360 865 q 283 752 283 806 q 311 683 283 710 q 428 622 339 655 l 514 590 q 694 471 636 545 q 752 284 752 397 q 661 55 752 131 q 387 -20 570 -20 q 237 -2 312 -20 q 91 51 161 15 l 91 258 q 245 172 170 200 q 393 145 320 145 q 508 178 467 145 q 549 272 549 212 q 521 352 549 318 q 443 406 494 387 l 345 444 m 479 0 q 536 -78 517 -42 q 555 -145 555 -113 q 513 -241 555 -210 q 385 -272 471 -272 q 319 -267 353 -272 q 249 -254 284 -263 l 249 -148 q 307 -165 279 -159 q 360 -172 336 -172 q 421 -156 399 -172 q 444 -113 444 -140 q 429 -68 444 -96 q 384 0 415 -40 l 479 0 "},"é":{"x_min":62,"x_max":779,"ha":836,"o":"m 747 37 q 605 -5 677 8 q 454 -20 534 -20 q 162 82 263 -20 q 62 376 62 184 q 159 670 62 562 q 423 778 256 778 q 685 677 592 778 q 779 395 779 577 l 779 315 l 264 315 q 316 181 264 225 q 472 137 369 137 q 607 156 541 137 q 747 219 674 176 l 747 37 m 579 464 q 538 583 577 542 q 423 624 499 624 q 314 582 354 624 q 266 463 273 540 l 579 464 m 535 1111 l 727 1111 l 477 856 l 344 856 l 535 1111 "},"B":{"x_min":85,"x_max":786,"ha":836,"o":"m 278 460 l 278 160 l 410 160 q 544 192 506 160 q 583 305 583 225 q 543 424 583 388 q 410 460 503 460 l 278 460 m 278 855 l 278 619 l 410 619 q 518 646 486 619 q 551 735 551 673 q 518 826 551 798 q 410 855 485 855 l 278 855 m 85 1014 l 410 1014 q 664 949 579 1014 q 750 758 750 885 q 699 605 750 660 q 552 541 649 550 q 727 463 668 530 q 786 278 786 397 q 697 65 786 131 q 410 0 609 0 l 85 0 l 85 1014 "},"…":{"x_min":39,"x_max":797,"ha":836,"o":"m 597 249 l 797 249 l 797 0 l 597 0 l 597 249 m 318 249 l 518 249 l 518 0 l 318 0 l 318 249 m 39 249 l 239 249 l 239 0 l 39 0 l 39 249 "},"H":{"x_min":93,"x_max":743,"ha":836,"o":"m 93 1013 l 293 1013 l 293 627 l 543 627 l 543 1013 l 743 1013 l 743 0 l 543 0 l 543 451 l 293 451 l 293 0 l 93 0 l 93 1013 "},"î":{"x_min":97,"x_max":791,"ha":836,"o":"m 150 760 l 544 760 l 544 153 l 791 153 l 791 0 l 97 0 l 97 153 l 345 153 l 345 607 l 150 607 l 150 760 m 336 1111 l 500 1111 l 674 856 l 553 856 l 418 1008 l 283 856 l 163 856 l 336 1111 "},"−":{"x_min":45,"x_max":790,"ha":836,"o":"m 45 516 l 790 516 l 790 355 l 45 355 l 45 516 "},"≠":{"x_min":53,"x_max":783,"ha":836,"o":"m 53 669 l 499 669 l 670 875 l 772 791 l 673 669 l 783 669 l 783 510 l 569 510 l 451 361 l 783 361 l 783 200 l 336 200 l 165 -6 l 63 79 l 162 200 l 53 200 l 53 361 l 270 361 l 389 510 l 53 510 l 53 669 "},"¥":{"x_min":5,"x_max":831,"ha":836,"o":"m 5 1013 l 221 1013 l 417 606 l 614 1013 l 831 1013 l 645 655 l 797 655 l 797 528 l 578 528 l 520 426 l 797 426 l 797 298 l 518 298 l 518 0 l 318 0 l 318 298 l 39 298 l 39 426 l 315 426 l 257 528 l 39 528 l 39 655 l 190 655 l 5 1013 "},"U":{"x_min":72,"x_max":764,"ha":836,"o":"m 72 373 l 72 1013 l 272 1013 l 272 323 q 310 204 272 247 q 418 161 349 161 q 525 204 486 161 q 564 323 564 247 l 564 1013 l 764 1013 l 764 373 q 681 73 764 167 q 418 -20 599 -20 q 154 73 236 -20 q 72 373 72 167 "},"Ñ":{"x_min":81,"x_max":754,"ha":836,"o":"m 81 1013 l 295 1013 l 578 276 l 578 1013 l 754 1013 l 754 0 l 540 0 l 257 736 l 257 0 l 81 0 l 81 1013 m 419 1141 l 382 1164 q 374 1169 379 1166 q 325 1187 344 1187 q 290 1166 304 1187 q 277 1113 277 1146 l 277 1109 l 182 1109 l 182 1129 q 218 1244 182 1200 q 315 1289 255 1289 q 365 1280 340 1289 q 416 1255 391 1272 l 457 1229 q 485 1215 471 1220 q 509 1210 498 1210 q 546 1230 533 1210 q 560 1289 560 1250 l 655 1289 q 654 1278 655 1285 q 653 1268 653 1272 q 617 1152 653 1196 q 521 1109 581 1109 q 472 1116 496 1109 q 419 1141 448 1123 "},"F":{"x_min":123,"x_max":754,"ha":836,"o":"m 754 837 l 323 837 l 323 618 l 715 618 l 715 442 l 323 442 l 323 0 l 123 0 l 123 1013 l 754 1013 l 754 837 "},"*":{"x_min":82,"x_max":752,"ha":836,"o":"m 752 825 l 527 708 l 752 589 l 700 494 l 475 619 l 475 386 l 358 386 l 358 619 l 133 494 l 82 589 l 307 708 l 82 825 l 133 921 l 358 797 l 358 1031 l 475 1031 l 475 797 l 700 921 l 752 825 "},"†":{"x_min":106,"x_max":729,"ha":836,"o":"m 330 1013 l 504 1013 l 504 751 l 729 751 l 729 600 l 504 600 l 504 -134 l 330 -134 l 330 600 l 106 600 l 106 751 l 330 751 l 330 1013 "},"∕":{"x_min":77,"x_max":760,"ha":836,"o":"m 610 1013 l 760 1013 l 227 -128 l 77 -128 l 610 1013 "},"°":{"x_min":192,"x_max":643,"ha":836,"o":"m 417 1031 q 504 1013 463 1031 q 577 963 546 996 q 626 891 609 931 q 643 804 643 850 q 626 718 643 759 q 577 645 609 676 q 503 596 545 613 q 416 579 462 579 q 256 643 320 579 q 192 804 192 707 q 257 965 192 900 q 417 1031 322 1031 m 418 921 q 335 887 369 921 q 302 804 302 853 q 335 722 302 755 q 416 689 368 689 q 499 722 465 689 q 533 804 533 756 q 499 887 533 853 q 418 921 466 921 "},"å":{"x_min":64,"x_max":752,"ha":836,"o":"m 475 357 q 320 328 364 357 q 276 230 276 299 q 306 148 276 179 q 389 118 337 118 q 511 177 468 118 q 555 343 555 236 l 555 357 l 475 357 m 752 433 l 752 0 l 555 0 l 555 84 q 462 7 519 34 q 338 -20 406 -20 q 136 48 208 -20 q 64 240 64 117 q 150 436 64 373 q 417 500 236 500 l 555 500 l 555 532 q 520 606 555 581 q 417 631 485 631 q 278 612 345 631 q 139 555 211 594 l 139 725 q 273 765 204 752 q 417 778 341 778 q 677 702 602 778 q 752 433 752 627 m 225 1040 q 281 1177 225 1120 q 417 1234 337 1234 q 554 1177 498 1234 q 611 1040 611 1120 q 554 903 611 960 q 417 847 498 847 q 281 903 337 847 q 225 1040 225 960 m 336 1040 q 360 976 336 1002 q 417 951 384 951 q 475 977 451 951 q 500 1040 500 1003 q 475 1103 500 1077 q 417 1130 451 1130 q 360 1103 384 1130 q 336 1040 336 1077 "},"0":{"x_min":83,"x_max":752,"ha":836,"o":"m 333 505 q 357 565 333 541 q 417 590 381 590 q 477 565 453 590 q 502 505 502 541 q 477 445 502 469 q 417 421 453 421 q 357 445 381 421 q 333 505 333 469 m 417 861 q 315 776 347 861 q 284 505 284 691 q 315 234 284 319 q 417 150 347 150 q 519 234 487 150 q 551 505 551 319 q 519 776 551 691 q 417 861 487 861 m 83 505 q 166 899 83 768 q 417 1031 249 1031 q 668 900 585 1031 q 752 505 752 769 q 668 110 752 241 q 417 -20 585 -20 q 166 111 249 -20 q 83 505 83 242 "},"”":{"x_min":103,"x_max":733,"ha":836,"o":"m 521 1055 l 733 1055 l 733 871 l 601 612 l 455 612 l 521 871 l 521 1055 m 169 1055 l 381 1055 l 381 871 l 249 612 l 103 612 l 169 871 l 169 1055 "},"ö":{"x_min":66,"x_max":769,"ha":836,"o":"m 204 1059 l 364 1059 l 364 892 l 204 892 l 204 1059 m 472 1059 l 632 1059 l 632 892 l 472 892 l 472 1059 m 417 617 q 305 554 346 617 q 265 379 265 491 q 305 203 265 266 q 417 141 346 141 q 529 203 488 141 q 570 379 570 266 q 529 554 570 491 q 417 617 488 617 m 66 379 q 161 670 66 562 q 417 778 256 778 q 673 670 578 778 q 769 379 769 562 q 673 87 769 195 q 417 -20 578 -20 q 161 87 256 -20 q 66 379 66 195 "},"Õ":{"x_min":62,"x_max":773,"ha":836,"o":"m 417 851 q 305 769 340 851 q 270 505 270 687 q 305 241 270 323 q 417 160 340 160 q 529 241 494 160 q 565 505 565 323 q 529 769 565 687 q 417 851 494 851 m 62 505 q 151 898 62 765 q 417 1031 241 1031 q 683 898 593 1031 q 773 505 773 765 q 683 112 773 245 q 417 -20 593 -20 q 151 112 241 -20 q 62 505 62 245 m 419 1141 l 382 1164 q 374 1169 379 1166 q 325 1187 344 1187 q 290 1166 304 1187 q 277 1113 277 1146 l 277 1109 l 182 1109 l 182 1129 q 218 1244 182 1200 q 315 1289 255 1289 q 365 1280 340 1289 q 416 1255 391 1272 l 457 1229 q 485 1215 471 1220 q 509 1210 498 1210 q 546 1230 533 1210 q 560 1289 560 1250 l 655 1289 q 654 1278 655 1285 q 653 1268 653 1272 q 617 1152 653 1196 q 521 1109 581 1109 q 472 1116 496 1109 q 419 1141 448 1123 "},"ć":{"x_min":114,"x_max":770,"ha":836,"o":"m 720 38 q 612 -5 669 9 q 487 -20 554 -20 q 213 85 312 -20 q 114 378 114 191 q 213 672 114 566 q 489 779 313 779 q 607 764 550 779 q 720 721 663 750 l 720 539 q 624 596 676 576 q 516 616 572 616 q 367 554 419 616 q 315 378 315 492 q 367 203 315 264 q 516 143 419 143 q 624 162 574 143 q 720 220 675 181 l 720 38 m 578 1111 l 770 1111 l 520 856 l 387 856 l 578 1111 "},"þ":{"x_min":102,"x_max":775,"ha":836,"o":"m 300 106 l 300 -289 l 102 -289 l 102 1055 l 300 1055 l 300 645 q 381 744 331 711 q 501 778 432 778 q 703 673 631 778 q 775 379 775 569 q 702 83 775 186 q 494 -20 629 -20 q 385 11 433 -20 q 300 106 336 42 m 576 380 q 539 552 576 490 q 438 615 502 615 q 337 552 374 615 q 300 380 300 490 q 337 207 300 269 q 438 145 374 145 q 539 207 502 145 q 576 380 576 269 "},"]":{"x_min":205.703125,"x_max":550,"ha":836,"o":"m 550 1055 l 550 -184 l 205 -184 l 205 -55 l 370 -55 l 370 926 l 205 926 l 205 1055 l 550 1055 "},"8":{"x_min":87,"x_max":748,"ha":836,"o":"m 417 451 q 308 408 349 451 q 267 296 267 366 q 308 183 267 226 q 417 141 349 141 q 526 184 484 141 q 568 296 568 227 q 526 408 568 366 q 417 451 485 451 m 268 535 q 151 619 191 562 q 112 758 112 675 q 194 957 112 884 q 417 1031 276 1031 q 640 957 558 1031 q 723 758 723 884 q 683 619 723 676 q 569 535 644 563 q 700 443 653 510 q 748 284 748 377 q 661 59 748 138 q 417 -20 575 -20 q 173 59 259 -20 q 87 284 87 138 q 135 444 87 377 q 268 535 183 510 m 290 742 q 324 647 290 682 q 417 612 358 612 q 510 647 476 612 q 545 742 545 682 q 510 835 545 801 q 417 870 476 870 q 324 835 358 870 q 290 742 290 800 "},"R":{"x_min":90,"x_max":836,"ha":836,"o":"m 546 478 q 598 450 576 472 q 652 364 620 428 l 836 0 l 615 0 l 493 256 q 479 286 488 267 q 353 401 426 401 l 290 401 l 290 0 l 90 0 l 90 1013 l 378 1013 q 658 943 573 1013 q 744 718 744 874 q 693 552 744 614 q 546 478 642 491 m 290 845 l 290 569 l 384 569 q 501 601 465 569 q 537 707 537 633 q 501 813 537 781 q 384 845 466 845 l 290 845 "},"o":{"x_min":66,"x_max":769,"ha":836,"o":"m 417 617 q 305 554 346 617 q 265 379 265 491 q 305 203 265 266 q 417 141 346 141 q 529 203 488 141 q 570 379 570 266 q 529 554 570 491 q 417 617 488 617 m 66 379 q 161 670 66 562 q 417 778 256 778 q 673 670 578 778 q 769 379 769 562 q 673 87 769 195 q 417 -20 578 -20 q 161 87 256 -20 q 66 379 66 195 "},"5":{"x_min":97,"x_max":742,"ha":836,"o":"m 131 1013 l 681 1013 l 681 837 l 293 837 l 293 648 q 345 662 317 658 q 404 667 373 667 q 648 571 554 667 q 742 324 742 476 q 640 72 742 165 q 364 -20 539 -20 q 232 -9 299 -20 q 97 23 166 1 l 97 203 q 212 161 153 175 q 331 148 271 148 q 492 193 437 148 q 547 324 547 238 q 492 452 547 404 q 347 500 437 500 q 239 486 293 500 q 131 447 185 473 l 131 1013 "},"õ":{"x_min":66,"x_max":769,"ha":836,"o":"m 418 902 l 381 927 q 373 933 379 929 q 325 953 344 953 q 289 931 302 953 q 276 870 276 909 l 276 865 l 182 865 l 182 887 q 218 1011 182 964 q 315 1059 254 1059 q 363 1049 339 1059 q 415 1019 387 1040 l 457 990 q 484 975 471 980 q 507 970 496 970 q 545 991 532 970 q 558 1051 558 1012 l 558 1057 l 655 1057 q 654 1045 655 1052 q 653 1035 653 1038 q 617 910 653 957 q 520 864 580 864 q 474 871 496 864 q 418 902 452 879 m 417 617 q 305 554 346 617 q 265 379 265 491 q 305 203 265 266 q 417 141 346 141 q 529 203 488 141 q 570 379 570 266 q 529 554 570 491 q 417 617 488 617 m 66 379 q 161 670 66 562 q 417 778 256 778 q 673 670 578 778 q 769 379 769 562 q 673 87 769 195 q 417 -20 578 -20 q 161 87 256 -20 q 66 379 66 195 "},",":{"x_min":246,"x_max":525,"ha":836,"o":"m 313 249 l 525 249 l 525 65 l 393 -195 l 246 -195 l 313 65 l 313 249 "},"d":{"x_min":61,"x_max":734,"ha":836,"o":"m 536 652 l 536 1055 l 734 1055 l 734 0 l 536 0 l 536 112 q 453 13 504 46 q 334 -20 403 -20 q 132 84 204 -20 q 61 379 61 189 q 133 674 61 571 q 341 778 206 778 q 450 746 402 778 q 536 652 499 715 m 260 378 q 296 205 260 267 q 397 143 333 143 q 498 205 461 143 q 536 378 536 267 q 498 550 536 488 q 397 613 461 613 q 296 550 333 613 q 260 378 260 488 "},"\"":{"x_min":156,"x_max":678,"ha":836,"o":"m 678 1013 l 678 637 l 504 637 l 504 1013 l 678 1013 m 330 1013 l 330 637 l 156 637 l 156 1013 l 330 1013 "},"˙":{"x_min":325,"x_max":512,"ha":836,"o":"m 325 1075 l 512 1075 l 512 908 l 325 908 l 325 1075 "},"ê":{"x_min":62,"x_max":779,"ha":836,"o":"m 747 37 q 605 -5 677 8 q 454 -20 534 -20 q 162 82 263 -20 q 62 376 62 184 q 159 670 62 562 q 423 778 256 778 q 685 677 592 778 q 779 395 779 577 l 779 315 l 264 315 q 316 181 264 225 q 472 137 369 137 q 607 156 541 137 q 747 219 674 176 l 747 37 m 579 464 q 538 583 577 542 q 423 624 499 624 q 314 582 354 624 q 266 463 273 540 l 579 464 m 362 1111 l 526 1111 l 700 856 l 579 856 l 444 1008 l 309 856 l 189 856 l 362 1111 "},"„":{"x_min":103,"x_max":733,"ha":836,"o":"m 521 249 l 733 249 l 733 65 l 601 -195 l 455 -195 l 521 65 l 521 249 m 169 249 l 381 249 l 381 65 l 249 -195 l 103 -195 l 169 65 l 169 249 "},"Â":{"x_min":22,"x_max":814,"ha":836,"o":"m 417 829 l 323 415 l 512 415 l 417 829 m 295 1013 l 540 1013 l 814 0 l 613 0 l 551 250 l 283 250 l 222 0 l 22 0 l 295 1013 m 312 1288 l 522 1288 l 674 1109 l 553 1109 l 418 1218 l 283 1109 l 163 1109 l 312 1288 "},"Í":{"x_min":117,"x_max":719,"ha":836,"o":"m 117 837 l 117 1013 l 719 1013 l 719 837 l 518 837 l 518 176 l 719 176 l 719 0 l 117 0 l 117 176 l 318 176 l 318 837 l 117 837 m 453 1288 l 646 1288 l 451 1109 l 318 1109 l 453 1288 "},"´":{"x_min":318,"x_max":701,"ha":836,"o":"m 509 1111 l 701 1111 l 451 856 l 318 856 l 509 1111 "},"Ú":{"x_min":72,"x_max":764,"ha":836,"o":"m 72 373 l 72 1013 l 272 1013 l 272 323 q 310 204 272 247 q 418 161 349 161 q 525 204 486 161 q 564 323 564 247 l 564 1013 l 764 1013 l 764 373 q 681 73 764 167 q 418 -20 599 -20 q 154 73 236 -20 q 72 373 72 167 m 453 1288 l 646 1288 l 451 1109 l 318 1109 l 453 1288 "},"Ý":{"x_min":5,"x_max":831,"ha":836,"o":"m 5 1013 l 220 1013 l 417 605 l 615 1013 l 831 1013 l 518 398 l 518 0 l 318 0 l 318 398 l 5 1013 m 453 1288 l 646 1288 l 451 1109 l 318 1109 l 453 1288 "},"Ω":{"x_min":61.203125,"x_max":775.78125,"ha":836,"o":"m 61 143 l 222 143 q 104 308 141 216 q 68 530 68 400 q 162 865 68 741 q 416 990 257 990 q 673 865 577 990 q 769 530 769 741 q 732 308 769 400 q 614 143 695 216 l 775 143 l 775 0 l 456 0 l 456 181 q 537 314 511 235 q 564 507 564 394 q 525 731 564 652 q 418 810 487 810 q 310 731 348 810 q 272 507 272 652 q 299 314 272 394 q 382 181 326 233 l 382 0 l 61 0 l 61 143 "},"Ö":{"x_min":62,"x_max":773,"ha":836,"o":"m 417 851 q 305 769 340 851 q 270 505 270 687 q 305 241 270 323 q 417 160 340 160 q 529 241 494 160 q 565 505 565 323 q 529 769 565 687 q 417 851 494 851 m 62 505 q 151 898 62 765 q 417 1031 241 1031 q 683 898 593 1031 q 773 505 773 765 q 683 112 773 245 q 417 -20 593 -20 q 151 112 241 -20 q 62 505 62 245 m 472 1288 l 632 1288 l 632 1121 l 472 1121 l 472 1288 m 204 1288 l 364 1288 l 364 1121 l 204 1121 l 204 1288 "},"z":{"x_min":110,"x_max":733,"ha":836,"o":"m 126 760 l 733 760 l 733 604 l 333 149 l 733 149 l 733 0 l 110 0 l 110 155 l 509 611 l 126 611 l 126 760 "},"™":{"x_min":0,"x_max":765,"ha":836,"o":"m 495 1013 l 563 859 l 623 1013 l 765 1013 l 765 621 l 661 621 l 661 917 l 588 744 l 537 744 l 458 917 l 458 621 l 355 621 l 355 1013 l 495 1013 m 298 1013 l 298 923 l 202 923 l 202 621 l 96 621 l 96 923 l 0 923 l 0 1013 l 298 1013 "},"ã":{"x_min":64,"x_max":752,"ha":836,"o":"m 475 357 q 320 328 364 357 q 276 230 276 299 q 306 148 276 179 q 389 118 337 118 q 511 177 468 118 q 555 343 555 236 l 555 357 l 475 357 m 752 433 l 752 0 l 555 0 l 555 84 q 462 7 519 34 q 338 -20 406 -20 q 136 48 208 -20 q 64 240 64 117 q 150 436 64 373 q 417 500 236 500 l 555 500 l 555 532 q 520 606 555 581 q 417 631 485 631 q 278 612 345 631 q 139 555 211 594 l 139 725 q 273 765 204 752 q 417 778 341 778 q 677 702 602 778 q 752 433 752 627 m 419 924 l 382 949 q 374 955 380 951 q 326 975 344 975 q 289 953 302 975 q 277 892 277 932 l 277 887 l 182 887 q 216 1029 182 979 q 315 1080 251 1080 q 364 1070 340 1080 q 416 1041 388 1061 l 458 1012 q 485 996 473 1001 q 509 991 498 991 q 546 1012 533 991 q 560 1073 560 1033 l 560 1078 l 655 1078 q 620 936 655 986 q 521 886 585 886 q 474 894 496 886 q 419 924 452 902 "},"æ":{"x_min":10,"x_max":806,"ha":836,"o":"m 332 271 l 332 328 l 282 328 q 193 301 223 328 q 163 223 163 274 q 184 149 163 175 q 247 124 206 124 q 311 153 290 124 q 332 242 332 182 l 332 271 m 653 468 l 653 483 q 636 600 653 568 q 576 632 619 632 q 516 600 533 632 q 500 483 500 568 l 500 468 l 653 468 m 806 325 l 500 325 q 533 175 500 226 q 632 124 567 124 q 713 143 672 124 q 794 203 754 163 l 794 38 q 717 -5 760 8 q 619 -20 675 -20 q 498 8 549 -20 q 419 90 447 36 q 347 7 391 34 q 236 -20 302 -20 q 68 42 127 -20 q 10 221 10 105 q 78 408 10 346 q 285 471 146 471 l 337 471 l 337 505 q 310 600 337 568 q 232 632 284 632 q 148 613 193 632 q 52 558 102 594 l 52 725 q 149 764 102 751 q 240 778 197 778 q 349 756 306 778 q 415 691 391 735 q 479 755 435 733 q 586 778 523 778 q 756 697 706 778 q 806 411 806 616 l 806 325 "},"É":{"x_min":114,"x_max":745,"ha":836,"o":"m 745 0 l 114 0 l 114 1013 l 745 1013 l 745 837 l 314 837 l 314 618 l 704 618 l 704 442 l 314 442 l 314 176 l 745 176 l 745 0 m 474 1288 l 667 1288 l 472 1109 l 339 1109 l 474 1288 "},"~":{"x_min":60,"x_max":777,"ha":836,"o":"m 777 549 l 777 391 q 677 332 726 351 q 575 314 629 314 q 437 348 514 314 q 415 357 422 355 q 328 388 363 380 q 258 397 293 397 q 158 377 205 397 q 60 315 110 357 l 60 470 q 162 529 112 511 q 268 548 211 548 q 338 540 304 548 q 422 512 372 533 q 444 502 429 508 q 586 465 523 465 q 680 485 633 465 q 777 549 727 506 "},"³":{"x_min":195,"x_max":653,"ha":836,"o":"m 394 707 l 320 707 l 320 806 l 394 806 q 473 822 444 806 q 502 869 502 839 q 475 917 502 900 q 401 935 448 935 q 307 927 354 935 q 215 904 261 919 l 215 1007 q 308 1024 261 1018 q 401 1031 356 1031 q 573 991 511 1031 q 636 883 636 952 q 600 802 636 834 q 497 759 564 770 q 613 711 573 749 q 653 611 653 673 q 587 486 653 529 q 397 443 522 443 q 295 450 346 443 q 195 471 245 457 l 195 575 q 291 547 240 556 q 397 538 343 538 q 486 559 454 538 q 519 619 519 581 q 485 683 519 660 q 394 707 452 707 "},"¡":{"x_min":328,"x_max":509,"ha":836,"o":"m 509 821 l 328 821 l 328 1013 l 509 1013 l 509 821 m 509 0 l 328 0 l 328 444 l 350 687 l 485 687 l 509 444 l 509 0 "},"[":{"x_min":286,"x_max":630.125,"ha":836,"o":"m 286 1055 l 630 1055 l 630 926 l 466 926 l 466 -55 l 630 -55 l 630 -184 l 286 -184 l 286 1055 "},"%":{"x_min":22,"x_max":826,"ha":836,"o":"m 22 754 q 85 907 22 844 q 238 971 148 971 q 391 907 328 971 q 455 754 455 844 q 391 601 455 664 q 238 538 328 538 q 85 600 148 538 q 22 754 22 663 m 238 847 q 172 820 199 847 q 145 754 145 793 q 172 687 145 714 q 238 661 199 661 q 304 687 277 661 q 331 754 331 714 q 303 819 331 792 q 238 847 276 847 m 57 380 l 764 663 l 792 598 l 81 315 l 57 380 m 393 216 q 455 369 393 306 q 609 433 518 433 q 762 369 698 433 q 826 216 826 306 q 762 63 826 126 q 609 0 698 0 q 455 62 518 0 q 393 216 393 125 m 607 310 q 542 282 569 310 q 516 216 516 255 q 542 149 516 176 q 607 123 568 123 q 674 150 647 123 q 702 216 702 177 q 674 282 702 254 q 607 310 646 310 "},"P":{"x_min":110,"x_max":778,"ha":836,"o":"m 310 845 l 310 548 l 392 548 q 530 581 490 548 q 570 696 570 614 q 530 811 570 778 q 392 845 490 845 l 310 845 m 110 1013 l 384 1013 q 686 938 594 1013 q 778 696 778 863 q 686 454 778 529 q 384 380 594 380 l 310 380 l 310 0 l 110 0 l 110 1013 "},"∏":{"x_min":103,"x_max":733,"ha":836,"o":"m 733 1030 l 733 -295 l 559 -295 l 559 890 l 277 890 l 277 -295 l 103 -295 l 103 1030 l 733 1030 "},"_":{"x_min":0,"x_max":836,"ha":836,"o":"m 836 -199 l 836 -328 l 0 -328 l 0 -199 l 836 -199 "},"ñ":{"x_min":117,"x_max":727,"ha":836,"o":"m 727 493 l 727 0 l 530 0 l 530 462 q 506 581 530 545 q 429 617 482 617 q 345 568 376 617 q 314 435 314 520 l 314 0 l 117 0 l 117 760 l 314 760 l 314 646 q 386 743 335 709 q 508 778 436 778 q 671 706 616 778 q 727 493 727 635 m 419 924 l 382 949 q 374 955 380 951 q 326 975 344 975 q 289 953 302 975 q 277 892 277 932 l 277 887 l 182 887 q 216 1029 182 979 q 315 1080 251 1080 q 364 1070 340 1080 q 416 1041 388 1061 l 458 1012 q 485 996 473 1001 q 509 991 498 991 q 546 1012 533 991 q 560 1073 560 1033 l 560 1078 l 655 1078 q 620 936 655 986 q 521 886 585 886 q 474 894 496 886 q 419 924 452 902 "},"‚":{"x_min":246,"x_max":525,"ha":836,"o":"m 313 249 l 525 249 l 525 65 l 393 -195 l 246 -195 l 313 65 l 313 249 "},"Æ":{"x_min":0,"x_max":800,"ha":836,"o":"m 787 1013 l 787 837 l 589 837 l 589 625 l 766 625 l 766 449 l 589 449 l 589 176 l 800 176 l 800 0 l 417 0 l 417 246 l 226 246 l 167 0 l 0 0 l 242 1013 l 787 1013 m 363 837 l 263 406 l 417 406 l 417 837 l 363 837 "},"ğ":{"x_min":66,"x_max":743,"ha":836,"o":"m 544 391 q 505 554 544 493 q 403 616 466 616 q 303 555 341 616 q 265 391 265 494 q 303 227 265 288 q 403 167 341 167 q 505 228 466 167 q 544 391 544 289 m 743 57 q 660 -206 743 -125 q 392 -288 578 -288 q 269 -278 330 -288 q 145 -251 208 -269 l 145 -69 q 259 -114 201 -99 q 379 -129 318 -129 q 503 -89 463 -129 q 544 35 544 -49 l 544 116 q 466 36 514 62 q 349 10 418 10 q 142 111 219 10 q 66 387 66 213 q 142 673 66 567 q 348 779 219 779 q 463 748 413 779 q 544 662 514 717 l 544 760 l 743 760 l 743 57 m 191 1089 l 287 1089 q 328 1017 294 1042 q 418 992 362 992 q 508 1016 474 992 q 549 1089 541 1041 l 646 1089 q 583 939 641 991 q 418 888 524 888 q 253 939 312 888 q 191 1089 195 991 "},"ª":{"x_min":174,"x_max":665.359375,"ha":836,"o":"m 533 710 l 533 731 l 464 731 q 356 713 390 731 q 323 657 323 695 q 343 605 323 624 q 400 587 364 587 q 495 621 458 587 q 533 710 533 656 m 533 548 q 458 491 499 509 q 364 473 417 473 q 225 519 276 473 q 174 645 174 565 q 236 780 174 735 q 426 826 299 826 l 533 826 l 533 843 q 502 894 533 877 q 409 911 471 911 q 305 899 354 911 q 214 865 257 888 l 214 993 q 313 1021 263 1012 q 415 1031 363 1031 q 603 972 543 1031 q 664 789 664 913 l 664 486 l 533 486 l 533 548 m 199 405 l 665 405 l 665 290 l 199 290 l 199 405 "},"Œ":{"x_min":46,"x_max":825,"ha":836,"o":"m 825 176 l 825 0 l 429 0 q 127 105 209 0 q 46 505 46 211 q 128 907 46 801 q 429 1013 210 1013 l 818 1013 l 818 837 l 593 837 l 593 625 l 797 625 l 797 449 l 593 449 l 593 176 l 825 176 m 385 837 q 271 776 302 837 q 240 505 240 716 q 270 235 240 294 q 385 176 301 176 l 421 176 l 421 837 l 385 837 "},"T":{"x_min":61,"x_max":775,"ha":836,"o":"m 518 0 l 318 0 l 318 838 l 61 838 l 61 1013 l 775 1013 l 775 838 l 518 838 l 518 0 "},"š":{"x_min":117,"x_max":724,"ha":836,"o":"m 672 736 l 672 562 q 557 615 617 597 q 439 634 498 634 q 338 614 372 634 q 305 556 305 595 q 450 468 305 502 l 457 466 l 514 452 q 673 369 623 426 q 724 214 724 312 q 646 38 724 97 q 415 -20 569 -20 q 274 -8 346 -20 q 129 27 202 3 l 129 201 q 263 143 194 163 q 395 124 331 124 q 501 144 465 124 q 537 203 537 164 q 511 261 537 241 q 390 305 486 282 l 335 317 q 169 398 221 343 q 117 545 117 453 q 196 716 117 655 q 419 778 275 778 q 547 767 483 778 q 672 736 611 757 m 336 856 l 163 1111 l 283 1111 l 418 957 l 553 1111 l 674 1111 l 500 856 l 336 856 "},"Þ":{"x_min":110,"x_max":778,"ha":836,"o":"m 310 689 l 310 391 l 392 391 q 530 424 491 391 q 570 538 570 457 q 530 655 570 621 q 392 689 490 689 l 310 689 m 110 1013 l 310 1013 l 310 852 l 384 852 q 686 777 594 852 q 778 535 778 703 q 685 299 778 373 q 384 226 592 226 l 310 226 l 310 0 l 110 0 l 110 1013 "},"j":{"x_min":97,"x_max":577,"ha":836,"o":"m 577 29 q 515 -215 577 -142 q 311 -288 454 -288 l 97 -288 l 97 -135 l 256 -135 q 350 -97 322 -135 q 378 29 378 -60 l 378 607 l 177 607 l 177 760 l 577 760 l 577 29 m 577 897 l 378 897 l 378 1129 l 577 1129 l 577 897 "},"1":{"x_min":127,"x_max":770,"ha":836,"o":"m 127 176 l 351 176 l 351 834 l 143 783 l 143 963 l 352 1013 l 546 1013 l 546 176 l 770 176 l 770 0 l 127 0 l 127 176 "},"›":{"x_min":285,"x_max":603,"ha":836,"o":"m 285 718 l 603 451 l 603 362 l 285 95 l 285 256 l 473 406 l 285 556 l 285 718 "},"<":{"x_min":60,"x_max":777,"ha":836,"o":"m 777 628 l 237 434 l 777 242 l 777 74 l 60 355 l 60 515 l 777 798 l 777 628 "},"t":{"x_min":75,"x_max":728,"ha":836,"o":"m 468 976 l 468 760 l 728 760 l 728 607 l 468 607 l 468 247 q 492 175 468 197 q 575 153 517 153 l 728 153 l 728 0 l 561 0 q 329 54 389 0 q 269 257 269 109 l 269 607 l 75 607 l 75 760 l 269 760 l 269 976 l 468 976 "},"¬":{"x_min":60,"x_max":777,"ha":836,"o":"m 60 610 l 777 610 l 777 246 l 616 246 l 616 449 l 60 449 l 60 610 "},"ù":{"x_min":109,"x_max":720,"ha":836,"o":"m 109 265 l 109 760 l 308 760 l 308 295 q 330 178 308 213 q 407 143 353 143 q 490 190 460 143 q 521 323 521 238 l 521 760 l 720 760 l 720 0 l 521 0 l 521 112 q 449 14 500 49 q 327 -20 399 -20 q 164 51 219 -20 q 109 265 109 123 m 326 1111 l 518 856 l 384 856 l 135 1111 l 326 1111 "},"ï":{"x_min":97,"x_max":791,"ha":836,"o":"m 150 760 l 544 760 l 544 153 l 791 153 l 791 0 l 97 0 l 97 153 l 345 153 l 345 607 l 150 607 l 150 760 m 472 1075 l 632 1075 l 632 908 l 472 908 l 472 1075 m 204 1075 l 364 1075 l 364 908 l 204 908 l 204 1075 "},"Ò":{"x_min":62,"x_max":773,"ha":836,"o":"m 417 851 q 305 769 340 851 q 270 505 270 687 q 305 241 270 323 q 417 160 340 160 q 529 241 494 160 q 565 505 565 323 q 529 769 565 687 q 417 851 494 851 m 62 505 q 151 898 62 765 q 417 1031 241 1031 q 683 898 593 1031 q 773 505 773 765 q 683 112 773 245 q 417 -20 593 -20 q 151 112 241 -20 q 62 505 62 245 m 384 1288 l 520 1109 l 386 1109 l 192 1288 l 384 1288 "},"&":{"x_min":25,"x_max":837,"ha":836,"o":"m 589 48 q 481 -2 538 14 q 365 -20 424 -20 q 119 68 213 -20 q 25 299 25 157 q 72 478 25 397 q 214 619 120 559 q 164 717 180 671 q 148 802 148 762 q 221 971 148 912 q 435 1031 295 1031 q 532 1023 484 1031 q 626 1002 579 1016 l 626 828 q 538 865 582 852 q 449 878 493 878 q 367 858 395 878 q 340 803 340 839 q 360 735 340 778 q 427 623 381 693 l 639 298 q 661 357 653 323 q 669 429 669 390 q 667 468 669 449 q 663 505 666 488 l 823 505 l 823 470 q 799 298 823 372 q 727 166 776 224 l 837 0 l 621 0 l 589 48 m 298 495 q 230 425 253 466 q 208 336 208 385 q 261 196 208 253 q 391 140 314 140 q 430 144 410 140 q 469 156 450 148 q 474 159 470 157 q 506 177 494 169 l 298 495 "},"˝":{"x_min":201,"x_max":735,"ha":836,"o":"m 578 1111 l 735 1111 l 550 856 l 433 856 l 578 1111 m 333 1111 l 480 1111 l 312 856 l 201 856 l 333 1111 "},"I":{"x_min":117,"x_max":719,"ha":836,"o":"m 117 837 l 117 1013 l 719 1013 l 719 837 l 518 837 l 518 176 l 719 176 l 719 0 l 117 0 l 117 176 l 318 176 l 318 837 l 117 837 "},"G":{"x_min":79,"x_max":766,"ha":836,"o":"m 591 183 l 591 377 l 454 377 l 454 545 l 766 545 l 766 80 q 638 5 708 30 q 489 -20 569 -20 q 186 116 293 -20 q 79 505 79 253 q 187 895 79 760 q 499 1031 295 1031 q 619 1013 560 1031 q 730 964 678 996 l 730 742 q 633 823 687 796 q 513 851 578 851 q 343 765 399 851 q 287 505 287 679 q 341 248 287 336 q 499 160 395 160 q 553 165 530 160 q 591 183 576 171 "},"`":{"x_min":135,"x_max":518,"ha":836,"o":"m 326 1111 l 518 856 l 384 856 l 135 1111 l 326 1111 "},"·":{"x_min":305,"x_max":532,"ha":836,"o":"m 305 607 l 532 607 l 532 359 l 305 359 l 305 607 "},"¿":{"x_min":119,"x_max":682,"ha":836,"o":"m 542 821 l 361 821 l 361 1013 l 542 1013 l 542 821 m 361 741 l 542 741 l 542 636 q 520 521 542 569 q 445 421 499 474 l 384 361 q 327 294 342 321 q 312 236 312 266 q 343 168 312 191 q 436 145 374 145 q 554 169 493 145 q 682 241 616 193 l 682 59 q 547 1 615 20 q 410 -18 479 -18 q 196 45 274 -18 q 119 221 119 109 q 142 317 119 273 q 228 424 165 362 l 288 482 q 346 554 333 526 q 359 625 359 583 q 360 629 359 626 q 361 657 361 644 l 361 741 "},"ý":{"x_min":40,"x_max":798,"ha":836,"o":"m 482 -82 q 386 -238 442 -189 q 250 -288 330 -288 l 86 -288 l 86 -137 l 166 -137 q 256 -116 227 -137 q 314 -19 284 -95 l 328 20 l 40 760 l 248 760 l 422 266 l 588 760 l 798 760 l 482 -82 m 509 1111 l 701 1111 l 451 856 l 318 856 l 509 1111 "},"º":{"x_min":186,"x_max":678,"ha":836,"o":"m 198 405 l 665 405 l 665 290 l 198 290 l 198 405 m 186 751 q 252 955 186 879 q 432 1031 319 1031 q 611 955 544 1031 q 678 751 678 880 q 611 548 678 623 q 432 473 545 473 q 252 548 319 473 q 186 751 186 623 m 432 911 q 353 868 382 911 q 325 751 325 825 q 353 634 325 677 q 432 592 382 592 q 511 634 482 592 q 540 751 540 677 q 511 868 540 825 q 432 911 482 911 "},"∞":{"x_min":8,"x_max":828,"ha":836,"o":"m 491 426 q 551 316 524 347 q 612 286 578 286 q 677 325 652 286 q 703 429 703 365 q 680 532 703 493 q 619 571 657 571 q 548 533 581 571 q 491 426 514 496 m 343 430 q 281 542 306 514 q 223 571 256 571 q 157 531 182 571 q 132 427 132 491 q 154 324 132 363 q 214 286 177 286 q 284 321 252 286 q 343 430 315 356 m 417 563 q 495 670 448 635 q 611 705 543 705 q 769 629 710 705 q 828 427 828 553 q 766 228 828 306 q 612 151 705 151 q 507 184 553 151 q 417 290 461 217 q 332 185 380 220 q 225 151 284 151 q 69 229 131 151 q 8 427 8 307 q 66 629 8 554 q 223 705 125 705 q 335 669 286 705 q 417 563 383 634 "},";":{"x_min":252,"x_max":532,"ha":836,"o":"m 305 249 l 532 249 l 532 65 l 398 -195 l 252 -195 l 305 65 l 305 249 m 305 721 l 532 721 l 532 473 l 305 473 l 305 721 "},"6":{"x_min":89,"x_max":761,"ha":836,"o":"m 436 507 q 337 459 371 507 q 303 323 303 412 q 337 187 303 234 q 436 140 371 140 q 536 187 501 140 q 571 323 571 234 q 536 459 571 412 q 436 507 501 507 m 699 989 l 699 807 q 596 853 645 838 q 501 869 547 869 q 336 795 393 869 q 277 579 279 722 q 358 645 308 623 q 474 668 407 668 q 686 581 611 668 q 761 336 761 495 q 677 72 761 166 q 441 -21 593 -21 q 172 103 256 -21 q 89 504 89 227 q 191 898 89 767 q 498 1030 293 1030 q 596 1019 546 1030 q 699 989 647 1009 "},"n":{"x_min":117,"x_max":727,"ha":836,"o":"m 727 493 l 727 0 l 530 0 l 530 462 q 506 581 530 545 q 429 617 482 617 q 345 568 376 617 q 314 435 314 520 l 314 0 l 117 0 l 117 760 l 314 760 l 314 646 q 386 743 335 709 q 508 778 436 778 q 671 706 616 778 q 727 493 727 635 "},"¤":{"x_min":126,"x_max":759,"ha":836,"o":"m 561 436 q 527 519 561 485 q 443 553 493 553 q 359 519 393 553 q 325 436 325 485 q 359 351 325 386 q 443 317 393 317 q 527 351 493 317 q 561 436 561 386 m 555 636 l 672 752 l 759 664 l 643 548 q 666 492 659 521 q 674 435 674 464 q 666 375 674 403 q 642 323 658 348 l 759 208 l 669 119 l 554 236 q 502 211 529 219 q 443 204 475 204 q 388 211 416 204 q 329 233 359 218 l 213 119 l 126 206 l 241 322 q 218 379 226 350 q 211 435 211 407 q 218 494 211 466 q 242 547 226 521 l 126 662 l 215 752 l 327 635 q 383 659 355 651 q 443 667 411 667 q 496 659 469 667 q 555 636 524 652 "},"∂":{"x_min":98,"x_max":740,"ha":836,"o":"m 563 448 q 582 577 576 516 q 589 682 589 637 q 572 789 589 750 q 524 829 555 829 q 425 779 494 829 q 317 729 357 729 q 269 749 289 729 q 249 799 249 770 q 308 879 249 842 q 451 916 366 916 q 660 806 581 916 q 740 512 740 696 q 633 132 740 282 q 365 -17 527 -17 q 173 60 248 -17 q 98 258 98 138 q 177 481 98 392 q 372 571 256 571 q 486 541 441 571 q 563 448 532 511 m 522 351 q 495 471 522 429 q 420 514 469 514 q 307 423 352 514 q 262 191 262 332 q 287 71 262 112 q 363 30 313 30 q 476 120 431 30 q 522 351 522 211 "},"p":{"x_min":102,"x_max":775,"ha":836,"o":"m 300 106 l 300 -289 l 102 -289 l 102 760 l 300 760 l 300 645 q 381 744 331 711 q 501 778 432 778 q 703 673 631 778 q 775 379 775 569 q 702 83 775 186 q 494 -20 629 -20 q 385 11 433 -20 q 300 106 336 42 m 576 380 q 539 552 576 490 q 438 615 502 615 q 337 552 374 615 q 300 380 300 490 q 337 207 300 269 q 438 145 374 145 q 539 207 502 145 q 576 380 576 269 "},"‡":{"x_min":106,"x_max":729,"ha":836,"o":"m 330 1013 l 504 1013 l 504 751 l 729 751 l 729 600 l 504 600 l 504 280 l 729 280 l 729 128 l 504 128 l 504 -134 l 330 -134 l 330 128 l 106 128 l 106 280 l 330 280 l 330 600 l 106 600 l 106 751 l 330 751 l 330 1013 "},"√":{"x_min":33,"x_max":796,"ha":836,"o":"m 76 454 l 33 588 l 271 672 l 387 278 l 649 1172 l 796 1172 l 796 1030 l 760 1030 l 448 -26 l 322 -26 l 173 489 l 76 454 "},"S":{"x_min":87,"x_max":752,"ha":836,"o":"m 345 444 q 140 565 194 501 q 87 735 87 628 q 175 952 87 873 q 417 1031 263 1031 q 556 1015 486 1031 q 695 968 626 999 l 695 773 q 564 841 630 818 q 432 865 497 865 q 321 835 360 865 q 283 752 283 806 q 311 683 283 710 q 428 622 339 655 l 514 590 q 694 471 636 545 q 752 284 752 397 q 661 55 752 131 q 387 -20 570 -20 q 237 -2 312 -20 q 91 51 161 15 l 91 258 q 245 172 170 200 q 393 145 320 145 q 508 178 467 145 q 549 272 549 212 q 521 352 549 318 q 443 406 494 387 l 345 444 "},"/":{"x_min":77,"x_max":760,"ha":836,"o":"m 610 1013 l 760 1013 l 227 -128 l 77 -128 l 610 1013 "},"y":{"x_min":40,"x_max":798,"ha":836,"o":"m 482 -82 q 386 -238 442 -189 q 250 -288 330 -288 l 86 -288 l 86 -137 l 166 -137 q 256 -116 227 -137 q 314 -19 284 -95 l 328 20 l 40 760 l 248 760 l 422 266 l 588 760 l 798 760 l 482 -82 "},"≈":{"x_min":60,"x_max":777,"ha":836,"o":"m 777 408 l 777 250 q 677 191 726 210 q 575 173 629 173 q 437 207 514 173 q 415 216 422 214 q 328 247 363 239 q 258 256 293 256 q 158 236 205 256 q 60 174 110 216 l 60 329 q 162 388 112 370 q 268 407 211 407 q 421 369 333 407 l 422 369 q 443 360 429 366 q 586 324 521 324 q 680 344 633 324 q 777 408 727 365 m 777 691 l 777 532 q 677 474 726 493 q 575 456 629 456 q 437 490 514 456 q 415 499 422 497 q 328 530 363 522 q 258 539 293 539 q 158 519 205 539 q 60 457 110 499 l 60 612 q 162 671 112 652 q 268 690 211 690 q 421 652 333 690 l 422 652 q 442 643 429 649 q 586 607 521 607 q 680 627 634 607 q 777 691 726 647 "},"g":{"x_min":66,"x_max":743,"ha":836,"o":"m 544 391 q 505 554 544 493 q 403 616 466 616 q 303 555 341 616 q 265 391 265 494 q 303 227 265 288 q 403 167 341 167 q 505 228 466 167 q 544 391 544 289 m 743 57 q 660 -206 743 -125 q 392 -288 578 -288 q 269 -278 330 -288 q 145 -251 208 -269 l 145 -69 q 259 -114 201 -99 q 379 -129 318 -129 q 503 -89 463 -129 q 544 35 544 -49 l 544 116 q 466 36 514 62 q 349 10 418 10 q 142 111 219 10 q 66 387 66 213 q 142 673 66 567 q 348 779 219 779 q 463 748 413 779 q 544 662 514 717 l 544 760 l 743 760 l 743 57 "},"²":{"x_min":186,"x_max":637.359375,"ha":836,"o":"m 339 551 l 637 551 l 637 453 l 186 453 l 186 548 q 281 628 220 577 q 494 859 494 806 q 464 915 494 895 q 384 936 435 936 q 300 924 346 936 q 203 889 255 912 l 203 1000 q 301 1023 253 1015 q 394 1031 350 1031 q 572 988 509 1031 q 636 870 636 946 q 395 595 636 785 q 339 551 358 566 "},"ë":{"x_min":62,"x_max":779,"ha":836,"o":"m 747 37 q 605 -5 677 8 q 454 -20 534 -20 q 162 82 263 -20 q 62 376 62 184 q 159 670 62 562 q 423 778 256 778 q 685 677 592 778 q 779 395 779 577 l 779 315 l 264 315 q 316 181 264 225 q 472 137 369 137 q 607 156 541 137 q 747 219 674 176 l 747 37 m 579 464 q 538 583 577 542 q 423 624 499 624 q 314 582 354 624 q 266 463 273 540 l 579 464 m 498 1075 l 658 1075 l 658 908 l 498 908 l 498 1075 m 230 1075 l 390 1075 l 390 908 l 230 908 l 230 1075 "},"–":{"x_min":0,"x_max":836,"ha":836,"o":"m 0 468 l 836 468 l 836 301 l 0 301 l 0 468 "},"ƒ":{"x_min":8,"x_max":782,"ha":836,"o":"m 782 1020 l 782 863 q 726 889 754 880 q 673 898 698 898 q 574 857 609 898 q 527 728 539 816 l 511 600 l 687 600 l 687 451 l 491 451 l 427 -31 q 342 -221 410 -154 q 165 -289 273 -289 q 84 -280 123 -289 q 8 -254 45 -271 l 8 -95 q 64 -122 37 -113 q 117 -132 91 -132 q 217 -90 182 -132 q 265 37 253 -49 l 319 451 l 148 451 l 148 600 l 339 600 l 365 798 q 450 987 381 920 q 628 1055 519 1055 q 706 1046 668 1055 q 782 1020 744 1037 "},"J":{"x_min":74,"x_max":684,"ha":836,"o":"m 74 50 l 74 282 q 198 191 132 222 q 331 160 264 160 q 447 199 410 160 q 484 324 484 238 l 484 837 l 239 837 l 239 1013 l 684 1013 l 684 324 q 606 59 684 139 q 350 -20 528 -20 q 215 -2 285 -20 q 74 50 145 15 "},"Ã":{"x_min":22,"x_max":814,"ha":836,"o":"m 417 829 l 323 415 l 512 415 l 417 829 m 295 1013 l 540 1013 l 814 0 l 613 0 l 551 250 l 283 250 l 222 0 l 22 0 l 295 1013 m 419 1141 l 382 1164 q 374 1169 379 1166 q 325 1187 344 1187 q 290 1166 304 1187 q 277 1113 277 1146 l 277 1109 l 182 1109 l 182 1129 q 218 1244 182 1200 q 315 1289 255 1289 q 365 1280 340 1289 q 416 1255 391 1272 l 457 1229 q 485 1215 471 1220 q 509 1210 498 1210 q 546 1230 533 1210 q 560 1289 560 1250 l 655 1289 q 654 1278 655 1285 q 653 1268 653 1272 q 617 1152 653 1196 q 521 1109 581 1109 q 472 1116 496 1109 q 419 1141 448 1123 "},"©":{"x_min":0,"x_max":836,"ha":836,"o":"m 575 710 l 575 596 q 509 626 539 617 q 445 636 478 636 q 344 601 380 636 q 308 502 308 566 q 343 403 308 438 q 445 369 379 369 q 514 378 481 369 q 575 409 546 388 l 575 295 q 501 277 537 283 q 432 271 466 271 q 249 334 317 271 q 181 502 181 397 q 249 670 181 607 q 432 733 317 733 q 504 727 469 733 q 575 710 540 721 m 417 921 q 577 890 503 921 q 712 798 651 859 q 804 662 773 737 q 836 502 836 588 q 805 344 836 417 q 712 208 774 270 q 577 115 650 146 q 417 85 503 85 q 259 115 332 85 q 123 208 185 146 q 30 344 61 270 q 0 502 0 417 q 31 662 0 588 q 123 798 62 737 q 258 890 184 859 q 417 921 332 921 m 417 832 q 292 807 350 832 q 185 734 235 783 q 113 628 137 686 q 89 501 89 570 q 113 378 89 435 q 185 272 137 320 q 292 198 234 223 q 417 174 350 174 q 543 198 485 174 q 649 272 601 223 q 722 378 698 320 q 747 501 747 435 q 722 628 747 570 q 649 734 698 686 q 543 807 600 783 q 417 832 486 832 "},"˘":{"x_min":191,"x_max":646,"ha":836,"o":"m 191 1089 l 287 1089 q 328 1017 294 1042 q 418 992 362 992 q 508 1016 474 992 q 549 1089 541 1041 l 646 1089 q 583 939 641 991 q 418 888 524 888 q 253 939 312 888 q 191 1089 195 991 "},"≥":{"x_min":60,"x_max":777,"ha":836,"o":"m 60 642 l 60 808 l 777 581 l 777 421 l 60 194 l 60 358 l 561 500 l 60 642 m 60 161 l 777 161 l 777 0 l 60 0 l 60 161 "},"D":{"x_min":93,"x_max":774,"ha":836,"o":"m 293 833 l 293 180 l 347 180 q 515 254 465 180 q 566 507 566 328 q 515 758 566 684 q 347 833 465 833 l 293 833 m 93 1013 l 307 1013 q 664 894 555 1013 q 774 507 774 776 q 664 119 774 238 q 307 0 555 0 l 93 0 l 93 1013 "},"ÿ":{"x_min":40,"x_max":798,"ha":836,"o":"m 482 -82 q 386 -238 442 -189 q 250 -288 330 -288 l 86 -288 l 86 -137 l 166 -137 q 256 -116 227 -137 q 314 -19 284 -95 l 328 20 l 40 760 l 248 760 l 422 266 l 588 760 l 798 760 l 482 -82 m 472 1075 l 632 1075 l 632 908 l 472 908 l 472 1075 m 204 1075 l 364 1075 l 364 908 l 204 908 l 204 1075 "},"ł":{"x_min":25.09375,"x_max":757,"ha":836,"o":"m 278 316 l 278 429 l 92 297 l 25 406 l 278 585 l 278 902 l 78 902 l 78 1055 l 476 1055 l 476 725 l 676 867 l 746 759 l 476 569 l 476 316 q 504 190 476 227 q 598 153 532 153 l 757 153 l 757 0 l 543 0 q 339 73 401 0 q 278 316 278 146 "},"Ł":{"x_min":-26.453125,"x_max":781,"ha":836,"o":"m 153 0 l 153 364 l 50 288 l -26 393 l 153 520 l 153 1013 l 353 1013 l 353 660 l 539 791 l 615 687 l 353 502 l 353 176 l 781 176 l 781 0 l 153 0 "},"$":{"x_min":111,"x_max":741,"ha":836,"o":"m 471 357 l 471 153 q 537 185 513 159 q 561 254 561 212 q 537 323 561 296 q 471 357 514 349 m 375 553 l 375 746 q 311 717 332 740 q 290 655 290 695 q 311 591 290 617 q 375 553 332 565 m 471 -204 l 375 -204 l 374 0 q 250 17 315 2 q 116 62 186 33 l 116 240 q 251 176 186 198 q 375 153 317 153 l 375 376 q 176 467 241 402 q 111 639 111 532 q 180 819 111 752 q 375 895 249 886 l 375 1056 l 471 1056 l 471 895 q 571 882 519 892 q 678 856 623 873 l 678 682 q 584 725 635 709 q 471 746 532 741 l 471 537 q 672 446 604 516 q 741 259 741 376 q 667 77 741 148 q 471 0 593 6 l 471 -204 "},"w":{"x_min":0,"x_max":836,"ha":836,"o":"m 0 760 l 165 760 l 255 177 l 337 561 l 498 561 l 579 177 l 670 760 l 836 760 l 698 0 l 509 0 l 417 394 l 326 0 l 137 0 l 0 760 "},"\\":{"x_min":75,"x_max":759,"ha":836,"o":"m 226 1013 l 759 -128 l 607 -128 l 75 1013 l 226 1013 "},"∫":{"x_min":49,"x_max":787,"ha":836,"o":"m 247 -171 q 329 262 317 -171 q 334 406 331 355 q 417 902 344 750 q 639 1054 490 1054 q 746 1020 706 1054 q 787 933 787 987 q 761 867 787 892 q 693 843 735 843 q 641 859 662 843 q 613 906 620 875 q 608 942 609 919 q 587 974 606 974 q 507 543 521 974 q 503 423 505 466 q 482 122 496 223 q 441 -47 468 21 q 341 -200 403 -147 q 196 -253 278 -253 q 89 -219 130 -253 q 49 -133 49 -186 q 75 -66 49 -91 q 146 -41 101 -41 q 204 -62 180 -41 q 228 -111 228 -83 q 232 -160 228 -150 q 247 -171 236 -171 "},"Ì":{"x_min":117,"x_max":719,"ha":836,"o":"m 117 837 l 117 1013 l 719 1013 l 719 837 l 518 837 l 518 176 l 719 176 l 719 0 l 117 0 l 117 176 l 318 176 l 318 837 l 117 837 m 384 1288 l 520 1109 l 386 1109 l 192 1288 l 384 1288 "},"Ç":{"x_min":103,"x_max":733,"ha":836,"o":"m 733 29 q 633 -7 685 4 q 523 -20 581 -20 q 210 115 318 -20 q 103 505 103 250 q 210 895 103 760 q 523 1031 318 1031 q 633 1018 581 1031 q 733 982 686 1006 l 733 760 q 632 829 681 807 q 532 851 584 851 q 366 763 422 851 q 311 505 311 676 q 366 247 311 334 q 532 160 422 160 q 632 181 584 160 q 733 251 681 203 l 733 29 m 558 0 q 615 -78 596 -42 q 634 -145 634 -113 q 592 -241 634 -210 q 464 -272 550 -272 q 398 -267 432 -272 q 328 -254 363 -263 l 328 -148 q 386 -165 358 -159 q 439 -172 415 -172 q 500 -156 478 -172 q 523 -113 523 -140 q 508 -68 523 -96 q 463 0 494 -40 l 558 0 "},"C":{"x_min":103,"x_max":733,"ha":836,"o":"m 733 29 q 633 -7 685 4 q 523 -20 581 -20 q 210 115 318 -20 q 103 505 103 250 q 210 895 103 760 q 523 1031 318 1031 q 633 1018 581 1031 q 733 982 686 1006 l 733 760 q 632 829 681 807 q 532 851 584 851 q 366 763 422 851 q 311 505 311 676 q 366 247 311 334 q 532 160 422 160 q 632 181 584 160 q 733 251 681 203 l 733 29 "},"!":{"x_min":328,"x_max":509,"ha":836,"o":"m 328 192 l 509 192 l 509 0 l 328 0 l 328 192 m 328 1013 l 509 1013 l 509 568 l 486 326 l 351 326 l 328 568 l 328 1013 "},"ç":{"x_min":114,"x_max":720,"ha":836,"o":"m 720 38 q 612 -5 669 9 q 487 -20 554 -20 q 213 85 312 -20 q 114 378 114 191 q 213 672 114 566 q 489 779 313 779 q 607 764 550 779 q 720 721 663 750 l 720 539 q 624 596 676 576 q 516 616 572 616 q 367 554 419 616 q 315 378 315 492 q 367 203 315 264 q 516 143 419 143 q 624 162 574 143 q 720 220 675 181 l 720 38 m 528 0 q 585 -78 566 -42 q 604 -145 604 -113 q 562 -241 604 -210 q 434 -272 520 -272 q 368 -267 402 -272 q 298 -254 333 -263 l 298 -148 q 356 -165 328 -159 q 409 -172 385 -172 q 470 -156 448 -172 q 493 -113 493 -140 q 478 -68 493 -96 q 433 0 464 -40 l 528 0 "},"È":{"x_min":114,"x_max":745,"ha":836,"o":"m 745 0 l 114 0 l 114 1013 l 745 1013 l 745 837 l 314 837 l 314 618 l 704 618 l 704 442 l 314 442 l 314 176 l 745 176 l 745 0 m 405 1288 l 541 1109 l 407 1109 l 213 1288 l 405 1288 "},"X":{"x_min":18,"x_max":818,"ha":836,"o":"m 818 0 l 611 0 l 417 335 l 224 0 l 18 0 l 315 514 l 26 1013 l 233 1013 l 417 690 l 602 1013 l 810 1013 l 522 514 l 818 0 "},"ﬁ":{"x_min":8,"x_max":744,"ha":836,"o":"m 545 1055 l 744 1055 l 744 857 l 545 857 l 545 1055 m 335 826 l 335 760 l 744 760 l 744 0 l 545 0 l 545 607 l 335 607 l 335 0 l 136 0 l 136 607 l 8 607 l 8 760 l 136 760 l 136 812 q 192 1002 136 949 q 403 1055 249 1055 l 458 1055 l 458 902 l 412 902 q 351 885 367 902 q 335 826 335 869 "},"ô":{"x_min":66,"x_max":769,"ha":836,"o":"m 336 1059 l 500 1059 l 674 856 l 552 856 l 417 955 l 283 856 l 163 856 l 336 1059 m 417 617 q 305 554 346 617 q 265 379 265 491 q 305 203 265 266 q 417 141 346 141 q 529 203 488 141 q 570 379 570 266 q 529 554 570 491 q 417 617 488 617 m 66 379 q 161 670 66 562 q 417 778 256 778 q 673 670 578 778 q 769 379 769 562 q 673 87 769 195 q 417 -20 578 -20 q 161 87 256 -20 q 66 379 66 195 "},"đ":{"x_min":61,"x_max":833,"ha":836,"o":"m 536 652 l 536 849 l 328 849 l 328 977 l 536 977 l 536 1055 l 734 1055 l 734 977 l 833 977 l 833 849 l 734 849 l 734 0 l 536 0 l 536 112 q 453 13 504 46 q 334 -20 403 -20 q 132 84 204 -20 q 61 379 61 189 q 133 674 61 571 q 341 778 206 778 q 450 746 402 778 q 536 652 499 715 m 260 378 q 296 205 260 267 q 397 143 333 143 q 498 205 461 143 q 536 378 536 267 q 498 550 536 488 q 397 613 461 613 q 296 550 333 613 q 260 378 260 488 "},"}":{"x_min":123,"x_max":718,"ha":836,"o":"m 123 -97 l 204 -97 q 299 -67 275 -97 q 324 58 324 -38 l 324 197 q 357 354 324 308 q 475 415 390 401 q 356 473 389 428 q 324 630 324 519 l 324 772 q 299 896 324 867 q 204 926 275 926 l 123 926 l 123 1055 l 224 1055 q 449 1005 392 1055 q 506 805 506 955 l 506 660 q 543 518 506 557 q 675 480 580 480 l 718 480 l 718 350 l 675 350 q 543 310 580 350 q 506 169 506 271 l 506 23 q 449 -176 506 -126 q 224 -227 392 -227 l 123 -227 l 123 -97 "},"â":{"x_min":64,"x_max":752,"ha":836,"o":"m 475 357 q 320 328 364 357 q 276 230 276 299 q 306 148 276 179 q 389 118 337 118 q 511 177 468 118 q 555 343 555 236 l 555 357 l 475 357 m 752 433 l 752 0 l 555 0 l 555 84 q 462 7 519 34 q 338 -20 406 -20 q 136 48 208 -20 q 64 240 64 117 q 150 436 64 373 q 417 500 236 500 l 555 500 l 555 532 q 520 606 555 581 q 417 631 485 631 q 278 612 345 631 q 139 555 211 594 l 139 725 q 273 765 204 752 q 417 778 341 778 q 677 702 602 778 q 752 433 752 627 m 336 1111 l 500 1111 l 674 856 l 553 856 l 418 1008 l 283 856 l 163 856 l 336 1111 "},"ø":{"x_min":16.84375,"x_max":814.4375,"ha":836,"o":"m 562 457 l 327 177 q 370 149 348 158 q 418 141 392 141 q 529 204 488 141 q 570 379 570 268 q 568 418 570 398 q 562 457 566 438 m 270 304 l 504 583 q 465 608 486 600 q 418 617 444 617 q 305 554 346 617 q 265 379 265 491 q 266 338 265 355 q 270 304 267 320 m 127 134 q 81 244 96 183 q 66 378 66 304 q 161 670 66 562 q 416 778 256 778 q 524 763 474 778 q 619 718 574 748 l 720 837 l 814 755 l 705 628 q 753 514 737 576 q 769 379 769 451 q 673 87 769 195 q 417 -20 578 -20 q 309 -4 361 -20 q 213 40 258 10 l 110 -79 l 16 1 l 127 134 "},"Ä":{"x_min":22,"x_max":814,"ha":836,"o":"m 417 829 l 323 415 l 512 415 l 417 829 m 295 1013 l 540 1013 l 814 0 l 613 0 l 551 250 l 283 250 l 222 0 l 22 0 l 295 1013 m 472 1288 l 632 1288 l 632 1121 l 472 1121 l 472 1288 m 204 1288 l 364 1288 l 364 1121 l 204 1121 l 204 1288 "},"‰":{"x_min":0,"x_max":836,"ha":836,"o":"m 449 195 q 504 332 449 276 q 641 389 560 389 q 779 332 722 389 q 836 195 836 276 q 779 57 836 114 q 641 0 722 0 q 505 56 562 0 q 449 192 449 112 l 449 195 m 641 280 q 582 254 607 280 q 558 195 558 229 q 582 135 558 160 q 641 110 606 110 q 700 135 675 110 q 726 195 726 160 q 700 254 726 229 q 641 280 675 278 m 0 777 q 56 914 0 858 q 194 971 113 971 q 330 914 274 971 q 387 777 387 857 q 330 639 387 696 q 194 582 274 582 q 56 638 113 582 q 0 777 0 695 m 193 861 q 134 837 158 861 q 110 778 110 813 q 134 717 110 742 q 193 692 158 692 q 252 717 227 692 q 278 778 278 743 q 252 836 278 811 q 193 861 227 861 m 31 195 q 86 332 31 276 q 224 389 142 389 q 361 332 304 389 q 418 195 418 276 q 361 57 418 114 q 224 0 304 0 q 87 56 143 0 q 31 195 31 113 m 224 280 q 165 255 189 280 q 141 197 141 231 q 165 135 141 161 q 224 110 189 110 q 283 135 258 110 q 309 197 309 161 q 283 255 309 230 q 224 280 258 280 m 24 450 l 731 732 l 757 669 l 49 382 l 24 450 "},"N":{"x_min":81,"x_max":754,"ha":836,"o":"m 81 1013 l 295 1013 l 578 276 l 578 1013 l 754 1013 l 754 0 l 540 0 l 257 736 l 257 0 l 81 0 l 81 1013 "},"—":{"x_min":0,"x_max":836,"ha":836,"o":"m 0 468 l 836 468 l 836 301 l 0 301 l 0 468 "},"2":{"x_min":78,"x_max":721.359375,"ha":836,"o":"m 294 176 l 721 176 l 721 0 l 78 0 l 78 170 l 186 286 q 421 539 379 491 q 494 642 472 597 q 517 732 517 687 q 475 836 517 799 q 359 874 434 874 q 239 852 306 874 q 100 790 172 830 l 100 977 q 242 1017 172 1003 q 375 1031 311 1031 q 628 956 536 1031 q 720 751 720 881 q 699 639 720 691 q 631 523 679 587 q 433 315 595 477 q 294 176 346 228 "},"ü":{"x_min":109,"x_max":720,"ha":836,"o":"m 109 265 l 109 760 l 308 760 l 308 295 q 330 178 308 213 q 407 143 353 143 q 490 190 460 143 q 521 323 521 238 l 521 760 l 720 760 l 720 0 l 521 0 l 521 112 q 449 14 500 49 q 327 -20 399 -20 q 164 51 219 -20 q 109 265 109 123 m 472 1075 l 632 1075 l 632 908 l 472 908 l 472 1075 m 204 1075 l 364 1075 l 364 908 l 204 908 l 204 1075 "},"Ó":{"x_min":62,"x_max":773,"ha":836,"o":"m 417 851 q 305 769 340 851 q 270 505 270 687 q 305 241 270 323 q 417 160 340 160 q 529 241 494 160 q 565 505 565 323 q 529 769 565 687 q 417 851 494 851 m 62 505 q 151 898 62 765 q 417 1031 241 1031 q 683 898 593 1031 q 773 505 773 765 q 683 112 773 245 q 417 -20 593 -20 q 151 112 241 -20 q 62 505 62 245 m 453 1288 l 646 1288 l 451 1109 l 318 1109 l 453 1288 "},"˜":{"x_min":182,"x_max":655,"ha":836,"o":"m 419 924 l 382 949 q 374 955 380 951 q 326 975 344 975 q 289 953 302 975 q 277 892 277 932 l 277 887 l 182 887 q 216 1029 182 979 q 315 1080 251 1080 q 364 1070 340 1080 q 416 1041 388 1061 l 458 1012 q 485 996 473 1001 q 509 991 498 991 q 546 1012 533 991 q 560 1073 560 1033 l 560 1078 l 655 1078 q 620 936 655 986 q 521 886 585 886 q 474 894 496 886 q 419 924 452 902 "},"ˇ":{"x_min":163,"x_max":674,"ha":836,"o":"m 336 856 l 163 1111 l 283 1111 l 418 957 l 553 1111 l 674 1111 l 500 856 l 336 856 "},"Ÿ":{"x_min":5,"x_max":831,"ha":836,"o":"m 5 1013 l 220 1013 l 417 605 l 615 1013 l 831 1013 l 518 398 l 518 0 l 318 0 l 318 398 l 5 1013 m 472 1288 l 632 1288 l 632 1121 l 472 1121 l 472 1288 m 204 1288 l 364 1288 l 364 1121 l 204 1121 l 204 1288 "},"€":{"x_min":4,"x_max":731,"ha":836,"o":"m 141 685 q 270 942 171 854 q 529 1031 369 1031 q 635 1018 585 1031 q 731 982 684 1006 l 731 760 q 633 836 680 812 q 533 861 585 861 q 412 816 460 861 q 344 685 365 772 l 644 685 l 587 557 l 328 557 q 326 534 326 546 q 326 497 326 521 q 326 477 326 488 q 327 455 326 466 l 542 455 l 484 328 l 344 328 q 409 195 360 241 q 531 150 457 150 q 632 174 584 150 q 731 251 680 198 l 731 29 q 636 -7 686 4 q 529 -20 586 -20 q 270 69 369 -20 q 141 328 171 158 l 4 328 l 61 455 l 126 455 q 125 474 125 464 q 125 505 125 485 q 125 536 125 525 q 126 557 125 546 l 4 557 l 61 685 l 141 685 "},"ß":{"x_min":86,"x_max":796,"ha":836,"o":"m 701 718 q 573 683 616 714 q 530 597 530 652 q 607 493 530 554 q 620 483 616 486 l 686 433 q 768 339 741 391 q 796 223 796 287 q 720 45 796 110 q 512 -20 644 -20 q 429 -11 471 -20 q 342 13 387 -3 l 342 183 q 420 150 381 161 q 495 140 459 140 q 574 162 545 140 q 603 224 603 185 q 525 333 603 273 q 495 356 506 348 l 436 402 q 376 478 396 435 q 356 573 356 521 q 405 717 356 659 q 548 796 455 775 q 508 871 541 846 q 413 896 475 896 q 317 861 349 896 q 285 761 285 827 l 285 0 l 86 0 l 86 763 q 167 980 86 906 q 405 1055 249 1055 q 628 974 556 1055 q 701 727 701 894 l 701 718 "},"s":{"x_min":117,"x_max":724,"ha":836,"o":"m 672 736 l 672 562 q 557 615 617 597 q 439 634 498 634 q 338 614 372 634 q 305 556 305 595 q 450 468 305 502 l 457 466 l 514 452 q 673 369 623 426 q 724 214 724 312 q 646 38 724 97 q 415 -20 569 -20 q 274 -8 346 -20 q 129 27 202 3 l 129 201 q 263 143 194 163 q 395 124 331 124 q 501 144 465 124 q 537 203 537 164 q 511 261 537 241 q 390 305 486 282 l 335 317 q 169 398 221 343 q 117 545 117 453 q 196 716 117 655 q 419 778 275 778 q 547 767 483 778 q 672 736 611 757 "},"?":{"x_min":158,"x_max":722,"ha":836,"o":"m 298 192 l 479 192 l 479 0 l 298 0 l 298 192 m 479 272 l 298 272 l 298 376 q 319 490 298 443 q 394 591 340 538 l 455 651 q 513 719 498 692 q 529 776 529 747 q 497 844 529 821 q 404 868 466 868 q 285 843 347 868 q 158 772 223 819 l 158 954 q 292 1011 224 992 q 429 1031 360 1031 q 644 967 566 1031 q 722 791 722 903 q 698 695 722 739 q 612 588 675 650 l 552 530 q 493 456 506 485 q 480 387 480 428 q 480 372 480 381 q 479 355 479 364 l 479 272 "},"c":{"x_min":114,"x_max":720,"ha":836,"o":"m 720 38 q 612 -5 669 9 q 487 -20 554 -20 q 213 85 312 -20 q 114 378 114 191 q 213 672 114 566 q 489 779 313 779 q 607 764 550 779 q 720 721 663 750 l 720 539 q 624 596 676 576 q 516 616 572 616 q 367 554 419 616 q 315 378 315 492 q 367 203 315 264 q 516 143 419 143 q 624 162 574 143 q 720 220 675 181 l 720 38 "},"¶":{"x_min":47,"x_max":722,"ha":836,"o":"m 368 1013 l 722 1013 l 722 -134 l 592 -134 l 592 913 l 463 913 l 463 -134 l 335 -134 l 335 440 q 121 531 196 457 q 47 726 47 605 q 134 934 47 855 q 368 1013 222 1013 "},"•":{"x_min":174,"x_max":663,"ha":836,"o":"m 174 517 q 192 611 174 566 q 245 689 211 655 q 325 742 282 724 q 418 760 369 760 q 512 741 467 760 q 590 689 556 723 q 644 610 626 654 q 663 517 663 566 q 644 423 663 467 q 590 343 625 378 q 511 289 555 308 q 416 271 466 271 q 323 289 367 271 q 244 343 279 308 q 192 422 210 378 q 174 517 174 467 "},"(":{"x_min":260,"x_max":627,"ha":836,"o":"m 627 1055 q 494 740 537 892 q 451 436 451 588 q 494 132 451 285 q 627 -184 537 -20 l 472 -184 q 312 125 364 -27 q 260 436 260 277 q 312 746 260 593 q 472 1055 365 900 l 627 1055 "},"◊":{"x_min":79,"x_max":757,"ha":836,"o":"m 417 955 l 156 401 l 417 -158 l 678 401 l 417 955 m 417 1121 l 757 401 l 417 -324 l 79 401 l 417 1121 "},"­":{"x_min":204,"x_max":632,"ha":836,"o":"m 204 498 l 632 498 l 632 301 l 204 301 l 204 498 "},":":{"x_min":305,"x_max":532,"ha":836,"o":"m 305 721 l 532 721 l 532 473 l 305 473 l 305 721 m 305 249 l 532 249 l 532 0 l 305 0 l 305 249 "},"Û":{"x_min":72,"x_max":764,"ha":836,"o":"m 72 373 l 72 1013 l 272 1013 l 272 323 q 310 204 272 247 q 418 161 349 161 q 525 204 486 161 q 564 323 564 247 l 564 1013 l 764 1013 l 764 373 q 681 73 764 167 q 418 -20 599 -20 q 154 73 236 -20 q 72 373 72 167 m 312 1288 l 522 1288 l 674 1109 l 553 1109 l 418 1218 l 283 1109 l 163 1109 l 312 1288 "},"V":{"x_min":39,"x_max":798,"ha":836,"o":"m 418 166 l 596 1013 l 798 1013 l 557 0 l 279 0 l 39 1013 l 240 1013 l 418 166 "}," ":{"x_min":0,"x_max":0,"ha":836},"@":{"x_min":4,"x_max":786,"ha":836,"o":"m 660 369 q 625 489 660 446 q 530 533 590 533 q 435 489 469 533 q 401 369 401 446 q 435 249 401 292 q 530 206 469 206 q 625 249 590 206 q 660 369 660 292 m 786 92 l 653 92 l 653 147 q 592 94 627 111 q 508 78 557 78 q 329 158 397 78 q 261 369 261 238 q 328 580 261 500 q 508 660 396 660 q 593 643 556 660 q 653 594 629 626 l 653 622 q 602 764 653 714 q 458 815 551 815 q 228 690 317 815 q 139 368 139 566 q 242 37 139 160 q 516 -86 345 -86 q 621 -70 571 -86 q 719 -22 672 -54 l 781 -141 q 662 -197 727 -178 q 523 -216 597 -216 q 145 -58 286 -216 q 4 368 4 99 q 130 788 4 630 q 466 946 257 946 q 700 856 614 946 q 786 613 786 767 l 786 92 "},"¾":{"x_min":32,"x_max":775,"ha":836,"o":"m 240 813 l 166 813 l 166 912 l 240 912 q 319 928 290 912 q 348 975 348 945 q 321 1023 348 1006 q 247 1041 294 1041 q 153 1033 200 1041 q 61 1010 107 1025 l 61 1113 q 154 1130 107 1124 q 247 1137 202 1137 q 419 1097 357 1137 q 482 989 482 1058 q 446 908 482 940 q 343 865 410 876 q 459 817 419 855 q 499 717 499 779 q 433 592 499 635 q 243 549 368 549 q 141 556 192 549 q 41 577 91 563 l 41 681 q 137 653 86 662 q 243 644 189 644 q 332 665 300 644 q 365 725 365 687 q 331 789 365 766 q 240 813 298 813 m 57 339 l 32 419 l 749 598 l 775 517 l 57 339 m 558 259 l 388 36 l 558 36 l 558 259 m 545 383 l 684 383 l 684 36 l 758 36 l 758 -61 l 684 -61 l 684 -183 l 558 -183 l 558 -61 l 291 -61 l 291 48 l 545 383 "},"i":{"x_min":97,"x_max":791,"ha":836,"o":"m 150 760 l 544 760 l 544 153 l 791 153 l 791 0 l 97 0 l 97 153 l 345 153 l 345 607 l 150 607 l 150 760 m 345 1129 l 544 1129 l 544 897 l 345 897 l 345 1129 "},"≤":{"x_min":60,"x_max":777,"ha":836,"o":"m 777 642 l 275 500 l 777 358 l 777 194 l 60 421 l 60 581 l 777 808 l 777 642 m 777 161 l 777 0 l 60 0 l 60 161 l 777 161 "},"m":{"x_min":56,"x_max":783,"ha":836,"o":"m 468 683 q 524 754 490 731 q 609 778 559 778 q 745 710 707 778 q 783 427 783 642 l 783 0 l 620 0 l 620 487 q 607 600 620 572 q 560 629 594 629 q 513 599 526 629 q 500 487 500 570 l 500 0 l 339 0 l 339 487 q 325 599 339 570 q 278 629 312 629 q 231 600 244 629 q 219 487 219 572 l 219 0 l 56 0 l 56 760 l 200 760 l 200 680 q 254 751 216 725 q 337 778 291 778 q 421 750 383 778 q 468 683 459 722 "},"ž":{"x_min":110,"x_max":733,"ha":836,"o":"m 126 760 l 733 760 l 733 604 l 333 149 l 733 149 l 733 0 l 110 0 l 110 155 l 509 611 l 126 611 l 126 760 m 336 856 l 163 1111 l 283 1111 l 418 957 l 553 1111 l 674 1111 l 500 856 l 336 856 "},"á":{"x_min":64,"x_max":752,"ha":836,"o":"m 475 357 q 320 328 364 357 q 276 230 276 299 q 306 148 276 179 q 389 118 337 118 q 511 177 468 118 q 555 343 555 236 l 555 357 l 475 357 m 752 433 l 752 0 l 555 0 l 555 84 q 462 7 519 34 q 338 -20 406 -20 q 136 48 208 -20 q 64 240 64 117 q 150 436 64 373 q 417 500 236 500 l 555 500 l 555 532 q 520 606 555 581 q 417 631 485 631 q 278 612 345 631 q 139 555 211 594 l 139 725 q 273 765 204 752 q 417 778 341 778 q 677 702 602 778 q 752 433 752 627 m 509 1111 l 701 1111 l 451 856 l 318 856 l 509 1111 "},"×":{"x_min":81,"x_max":754,"ha":836,"o":"m 754 659 l 530 436 l 754 212 l 640 100 l 416 322 l 194 100 l 81 212 l 304 436 l 81 659 l 194 773 l 416 550 l 640 773 l 754 659 "},"İ":{"x_min":117,"x_max":719,"ha":836,"o":"m 117 837 l 117 1013 l 719 1013 l 719 837 l 518 837 l 518 176 l 719 176 l 719 0 l 117 0 l 117 176 l 318 176 l 318 837 l 117 837 m 325 1288 l 512 1288 l 512 1121 l 325 1121 l 325 1288 "},"K":{"x_min":79,"x_max":830.390625,"ha":836,"o":"m 79 1013 l 279 1013 l 279 612 l 592 1013 l 818 1013 l 499 614 l 830 0 l 607 0 l 367 455 l 279 343 l 279 0 l 79 0 l 79 1013 "},"7":{"x_min":92,"x_max":732,"ha":836,"o":"m 92 1013 l 732 1013 l 732 871 l 389 0 l 185 0 l 514 837 l 92 837 l 92 1013 "},"¨":{"x_min":204,"x_max":632,"ha":836,"o":"m 472 1075 l 632 1075 l 632 908 l 472 908 l 472 1075 m 204 1075 l 364 1075 l 364 908 l 204 908 l 204 1075 "},"Y":{"x_min":5,"x_max":831,"ha":836,"o":"m 5 1013 l 220 1013 l 417 605 l 615 1013 l 831 1013 l 518 398 l 518 0 l 318 0 l 318 398 l 5 1013 "},"E":{"x_min":114,"x_max":745,"ha":836,"o":"m 745 0 l 114 0 l 114 1013 l 745 1013 l 745 837 l 314 837 l 314 618 l 704 618 l 704 442 l 314 442 l 314 176 l 745 176 l 745 0 "},"Ô":{"x_min":62,"x_max":773,"ha":836,"o":"m 417 851 q 305 769 340 851 q 270 505 270 687 q 305 241 270 323 q 417 160 340 160 q 529 241 494 160 q 565 505 565 323 q 529 769 565 687 q 417 851 494 851 m 62 505 q 151 898 62 765 q 417 1031 241 1031 q 683 898 593 1031 q 773 505 773 765 q 683 112 773 245 q 417 -20 593 -20 q 151 112 241 -20 q 62 505 62 245 m 312 1288 l 522 1288 l 674 1109 l 553 1109 l 418 1218 l 283 1109 l 163 1109 l 312 1288 "},"Ï":{"x_min":117,"x_max":719,"ha":836,"o":"m 117 837 l 117 1013 l 719 1013 l 719 837 l 518 837 l 518 176 l 719 176 l 719 0 l 117 0 l 117 176 l 318 176 l 318 837 l 117 837 m 472 1288 l 632 1288 l 632 1121 l 472 1121 l 472 1288 m 204 1288 l 364 1288 l 364 1121 l 204 1121 l 204 1288 "},"‹":{"x_min":235,"x_max":553,"ha":836,"o":"m 553 718 l 553 556 l 365 406 l 553 256 l 553 95 l 235 362 l 235 451 l 553 718 "},"±":{"x_min":60,"x_max":777,"ha":836,"o":"m 499 871 l 499 631 l 777 631 l 777 471 l 499 471 l 499 231 l 338 231 l 338 471 l 60 471 l 60 631 l 338 631 l 338 871 l 499 871 m 60 161 l 777 161 l 777 0 l 60 0 l 60 161 "},"ì":{"x_min":97,"x_max":791,"ha":836,"o":"m 150 760 l 544 760 l 544 153 l 791 153 l 791 0 l 97 0 l 97 153 l 345 153 l 345 607 l 150 607 l 150 760 m 326 1111 l 518 856 l 384 856 l 135 1111 l 326 1111 "},"|":{"x_min":340,"x_max":494,"ha":836,"o":"m 494 1055 l 494 -334 l 340 -334 l 340 1055 l 494 1055 "},"§":{"x_min":115,"x_max":719,"ha":836,"o":"m 351 580 q 296 532 313 555 q 280 481 280 508 q 312 415 280 445 q 481 320 345 385 q 535 368 518 344 q 552 420 552 391 q 373 569 552 475 l 351 580 m 630 990 l 630 837 q 527 867 572 857 q 446 878 483 878 q 366 858 395 878 q 338 803 338 838 q 474 680 338 751 q 493 670 487 673 q 678 547 638 595 q 719 431 719 500 q 686 327 719 371 q 585 252 654 284 q 654 177 632 218 q 677 80 677 135 q 606 -75 677 -18 q 409 -132 535 -132 q 290 -122 349 -132 q 175 -93 232 -112 l 175 62 q 287 31 232 41 q 391 21 342 21 q 471 40 443 21 q 499 95 499 59 q 354 220 499 142 l 347 224 l 329 234 q 115 466 115 349 q 150 576 115 529 q 251 646 185 624 q 181 721 203 680 q 160 817 160 761 q 230 972 160 914 q 417 1031 300 1031 q 520 1020 467 1031 q 630 990 573 1010 "},"q":{"x_min":61,"x_max":734,"ha":836,"o":"m 260 380 q 296 207 260 269 q 397 145 333 145 q 498 207 461 145 q 536 380 536 269 q 498 552 536 490 q 397 615 461 615 q 296 552 333 615 q 260 380 260 490 m 536 106 q 450 11 499 42 q 341 -20 402 -20 q 133 83 206 -20 q 61 379 61 186 q 132 673 61 569 q 334 778 204 778 q 453 744 403 778 q 536 645 504 711 l 536 760 l 734 760 l 734 -289 l 536 -289 l 536 106 "},"b":{"x_min":102,"x_max":775,"ha":836,"o":"m 576 378 q 539 550 576 488 q 438 613 502 613 q 337 550 374 613 q 300 378 300 488 q 337 205 300 267 q 438 143 374 143 q 539 205 502 143 q 576 378 576 267 m 300 652 q 385 746 336 715 q 494 778 433 778 q 702 674 629 778 q 775 379 775 571 q 703 84 775 189 q 501 -20 631 -20 q 381 13 432 -20 q 300 112 331 46 l 300 0 l 102 0 l 102 1055 l 300 1055 l 300 652 "},"ﬂ":{"x_min":8,"x_max":744,"ha":836,"o":"m 335 826 l 335 760 l 462 760 l 462 607 l 335 607 l 335 0 l 136 0 l 136 607 l 8 607 l 8 760 l 136 760 l 136 812 q 192 1002 136 949 q 403 1055 249 1055 l 744 1055 l 744 0 l 545 0 l 545 902 l 412 902 q 351 885 367 902 q 335 826 335 869 "},"®":{"x_min":0,"x_max":836,"ha":836,"o":"m 417 921 q 577 890 503 921 q 712 798 651 859 q 804 662 773 737 q 836 502 836 588 q 805 344 836 417 q 712 208 774 270 q 577 115 650 146 q 417 85 503 85 q 259 115 332 85 q 123 208 185 146 q 30 344 61 270 q 0 502 0 417 q 31 662 0 588 q 123 798 62 737 q 258 890 184 859 q 417 921 332 921 m 398 639 l 355 639 l 355 529 l 398 529 q 455 542 436 529 q 475 582 475 555 q 456 625 475 611 q 398 639 437 639 m 410 714 q 544 684 500 714 q 588 593 588 654 q 561 521 588 550 q 486 484 534 492 q 531 456 512 475 q 566 404 549 437 l 620 292 l 502 292 l 460 381 q 422 436 441 420 q 375 454 403 452 l 355 454 l 355 292 l 244 292 l 244 714 l 410 714 m 417 832 q 292 807 350 832 q 185 734 235 783 q 113 628 137 686 q 89 501 89 570 q 113 378 89 435 q 185 270 137 320 q 292 198 234 222 q 417 174 350 174 q 543 198 484 174 q 649 270 601 222 q 722 378 698 320 q 747 501 747 435 q 722 628 747 570 q 649 734 698 686 q 543 807 600 783 q 417 832 486 832 "},"L":{"x_min":153,"x_max":781,"ha":836,"o":"m 153 0 l 153 1013 l 353 1013 l 353 176 l 781 176 l 781 0 l 153 0 "}," ":{"x_min":0,"x_max":0,"ha":836},"∑":{"x_min":86,"x_max":749,"ha":836,"o":"m 421 386 l 86 935 l 86 1030 l 737 1030 l 737 886 l 298 886 l 603 386 l 297 -152 l 749 -152 l 749 -295 l 86 -295 l 86 -203 l 421 386 "},"À":{"x_min":22,"x_max":814,"ha":836,"o":"m 417 829 l 323 415 l 512 415 l 417 829 m 295 1013 l 540 1013 l 814 0 l 613 0 l 551 250 l 283 250 l 222 0 l 22 0 l 295 1013 m 384 1288 l 520 1109 l 386 1109 l 192 1288 l 384 1288 "},"+":{"x_min":45,"x_max":791,"ha":836,"o":"m 499 808 l 499 516 l 791 516 l 791 355 l 499 355 l 499 62 l 338 62 l 338 355 l 45 355 l 45 516 l 338 516 l 338 808 l 499 808 "},"½":{"x_min":32,"x_max":775,"ha":836,"o":"m 38 657 l 191 657 l 191 1025 l 42 996 l 42 1097 l 192 1125 l 324 1125 l 324 657 l 477 657 l 477 559 l 38 559 l 38 657 m 57 339 l 32 419 l 749 598 l 775 517 l 57 339 m 475 -85 l 773 -85 l 773 -183 l 322 -183 l 322 -87 q 417 -7 356 -58 q 630 223 630 170 q 600 279 630 259 q 520 300 571 300 q 436 288 482 300 q 339 253 391 276 l 339 364 q 437 387 389 379 q 530 395 486 395 q 708 352 645 395 q 772 234 772 310 q 531 -40 772 149 q 475 -85 494 -69 "},"Ë":{"x_min":114,"x_max":745,"ha":836,"o":"m 745 0 l 114 0 l 114 1013 l 745 1013 l 745 837 l 314 837 l 314 618 l 704 618 l 704 442 l 314 442 l 314 176 l 745 176 l 745 0 m 493 1288 l 653 1288 l 653 1121 l 493 1121 l 493 1288 m 225 1288 l 385 1288 l 385 1121 l 225 1121 l 225 1288 "},"'":{"x_min":330,"x_max":504,"ha":836,"o":"m 504 1013 l 504 637 l 330 637 l 330 1013 l 504 1013 "},"Š":{"x_min":87,"x_max":752,"ha":836,"o":"m 345 444 q 140 565 194 501 q 87 735 87 628 q 175 952 87 873 q 417 1031 263 1031 q 556 1015 486 1031 q 695 968 626 999 l 695 773 q 564 841 630 818 q 432 865 497 865 q 321 835 360 865 q 283 752 283 806 q 311 683 283 710 q 428 622 339 655 l 514 590 q 694 471 636 545 q 752 284 752 397 q 661 55 752 131 q 387 -20 570 -20 q 237 -2 312 -20 q 91 51 161 15 l 91 258 q 245 172 170 200 q 393 145 320 145 q 508 178 467 145 q 549 272 549 212 q 521 352 549 318 q 443 406 494 387 l 345 444 m 312 1109 l 163 1288 l 283 1288 l 418 1178 l 553 1288 l 674 1288 l 522 1109 l 312 1109 "},"˛":{"x_min":302,"x_max":592,"ha":836,"o":"m 377 0 l 473 0 q 425 -71 437 -48 q 413 -112 413 -95 q 433 -155 413 -138 q 487 -172 454 -172 q 539 -166 513 -172 q 592 -151 565 -161 l 592 -257 q 523 -268 555 -264 q 463 -272 491 -272 q 344 -240 386 -272 q 302 -151 302 -209 q 320 -78 302 -115 q 377 0 339 -41 "},"ð":{"x_min":66,"x_max":763,"ha":836,"o":"m 549 515 q 482 543 515 533 q 416 553 449 553 q 304 503 345 553 q 263 369 263 454 q 303 201 263 262 q 414 141 343 141 q 527 202 488 141 q 566 381 566 264 q 561 445 566 412 q 549 515 557 478 m 636 745 q 733 567 704 652 q 763 378 763 481 q 670 85 763 191 q 414 -20 578 -20 q 160 83 254 -20 q 66 363 66 187 q 154 619 66 524 q 389 714 242 714 q 437 709 416 714 q 477 697 458 705 l 368 845 l 157 764 l 120 844 l 311 918 l 204 1055 l 403 1055 l 465 976 l 667 1062 l 712 979 l 523 899 l 636 745 "},"ş":{"x_min":117,"x_max":724,"ha":836,"o":"m 672 736 l 672 562 q 557 615 617 597 q 439 634 498 634 q 338 614 372 634 q 305 556 305 595 q 450 468 305 502 l 457 466 l 514 452 q 673 369 623 426 q 724 214 724 312 q 646 38 724 97 q 415 -20 569 -20 q 274 -8 346 -20 q 129 27 202 3 l 129 201 q 263 143 194 163 q 395 124 331 124 q 501 144 465 124 q 537 203 537 164 q 511 261 537 241 q 390 305 486 282 l 335 317 q 169 398 221 343 q 117 545 117 453 q 196 716 117 655 q 419 778 275 778 q 547 767 483 778 q 672 736 611 757 m 479 0 q 536 -78 517 -42 q 555 -145 555 -113 q 513 -241 555 -210 q 385 -272 471 -272 q 319 -267 353 -272 q 249 -254 284 -263 l 249 -148 q 307 -165 279 -159 q 360 -172 336 -172 q 421 -156 399 -172 q 444 -113 444 -140 q 429 -68 444 -96 q 384 0 415 -40 l 479 0 "},"ı":{"x_min":97,"x_max":791,"ha":836,"o":"m 150 760 l 544 760 l 544 153 l 791 153 l 791 0 l 97 0 l 97 153 l 345 153 l 345 607 l 150 607 l 150 760 "},"Ć":{"x_min":103,"x_max":739,"ha":836,"o":"m 733 29 q 633 -7 685 4 q 523 -20 581 -20 q 210 115 318 -20 q 103 505 103 250 q 210 895 103 760 q 523 1031 318 1031 q 633 1018 581 1031 q 733 982 686 1006 l 733 760 q 632 829 681 807 q 532 851 584 851 q 366 763 422 851 q 311 505 311 676 q 366 247 311 334 q 532 160 422 160 q 632 181 584 160 q 733 251 681 203 l 733 29 m 546 1288 l 739 1288 l 544 1109 l 411 1109 l 546 1288 "},"ä":{"x_min":64,"x_max":752,"ha":836,"o":"m 475 357 q 320 328 364 357 q 276 230 276 299 q 306 148 276 179 q 389 118 337 118 q 511 177 468 118 q 555 343 555 236 l 555 357 l 475 357 m 752 433 l 752 0 l 555 0 l 555 84 q 462 7 519 34 q 338 -20 406 -20 q 136 48 208 -20 q 64 240 64 117 q 150 436 64 373 q 417 500 236 500 l 555 500 l 555 532 q 520 606 555 581 q 417 631 485 631 q 278 612 345 631 q 139 555 211 594 l 139 725 q 273 765 204 752 q 417 778 341 778 q 677 702 602 778 q 752 433 752 627 m 472 1075 l 632 1075 l 632 908 l 472 908 l 472 1075 m 204 1075 l 364 1075 l 364 908 l 204 908 l 204 1075 "},"¹":{"x_min":213,"x_max":652,"ha":836,"o":"m 213 551 l 366 551 l 366 919 l 217 890 l 217 991 l 367 1019 l 499 1019 l 499 551 l 652 551 l 652 453 l 213 453 l 213 551 "},"£":{"x_min":81,"x_max":761,"ha":836,"o":"m 748 992 l 748 806 q 665 848 709 833 q 574 863 621 863 q 468 817 502 863 q 435 674 435 772 l 435 555 l 663 555 l 663 402 l 435 402 l 435 176 l 761 176 l 761 0 l 81 0 l 81 176 l 240 176 l 240 402 l 106 402 l 106 555 l 240 555 l 240 689 q 316 946 240 862 q 550 1031 392 1031 q 654 1021 606 1031 q 748 992 703 1011 "},"W":{"x_min":0,"x_max":836,"ha":836,"o":"m 0 1013 l 174 1013 l 247 269 l 334 751 l 501 751 l 602 269 l 659 1013 l 836 1013 l 719 0 l 532 0 l 417 532 l 309 0 l 124 0 l 0 1013 "},"Ğ":{"x_min":79,"x_max":766,"ha":836,"o":"m 591 183 l 591 377 l 454 377 l 454 545 l 766 545 l 766 80 q 638 5 708 30 q 489 -20 569 -20 q 186 116 293 -20 q 79 505 79 253 q 187 895 79 760 q 499 1031 295 1031 q 619 1013 560 1031 q 730 964 678 996 l 730 742 q 633 823 687 796 q 513 851 578 851 q 343 765 399 851 q 287 505 287 679 q 341 248 287 336 q 499 160 395 160 q 553 165 530 160 q 591 183 576 171 m 191 1288 l 287 1288 q 333 1226 300 1247 q 418 1206 366 1206 q 502 1226 470 1206 q 549 1288 535 1246 l 646 1288 q 577 1154 635 1200 q 418 1109 518 1109 q 259 1154 318 1109 q 191 1288 201 1200 "},"v":{"x_min":54,"x_max":782,"ha":836,"o":"m 782 760 l 540 0 l 295 0 l 54 760 l 255 760 l 417 166 l 580 760 l 782 760 "},">":{"x_min":60,"x_max":777,"ha":836,"o":"m 60 628 l 60 798 l 777 515 l 777 355 l 60 74 l 60 242 l 599 434 l 60 628 "},"û":{"x_min":109,"x_max":720,"ha":836,"o":"m 109 265 l 109 760 l 308 760 l 308 295 q 330 178 308 213 q 407 143 353 143 q 490 190 460 143 q 521 323 521 238 l 521 760 l 720 760 l 720 0 l 521 0 l 521 112 q 449 14 500 49 q 327 -20 399 -20 q 164 51 219 -20 q 109 265 109 123 m 336 1111 l 500 1111 l 674 856 l 553 856 l 418 1008 l 283 856 l 163 856 l 336 1111 "},"Ð":{"x_min":0,"x_max":774,"ha":836,"o":"m 293 833 l 293 611 l 436 611 l 436 450 l 293 450 l 293 180 l 347 180 q 515 254 465 180 q 566 507 566 328 q 515 758 566 684 q 347 833 465 833 l 293 833 m 93 1013 l 307 1013 q 664 894 555 1013 q 774 507 774 776 q 664 119 774 238 q 307 0 555 0 l 93 0 l 93 450 l 0 450 l 0 611 l 93 611 l 93 1013 "},"r":{"x_min":197,"x_max":780,"ha":836,"o":"m 780 550 q 703 595 747 580 q 607 610 660 610 q 497 587 545 610 q 425 523 450 565 q 402 461 408 497 q 396 349 396 424 l 396 0 l 197 0 l 197 760 l 396 760 l 396 641 q 485 742 425 706 q 626 778 545 778 q 705 768 666 778 q 780 739 744 758 l 780 550 "},"Č":{"x_min":103,"x_max":767,"ha":836,"o":"m 733 29 q 633 -7 685 4 q 523 -20 581 -20 q 210 115 318 -20 q 103 505 103 250 q 210 895 103 760 q 523 1031 318 1031 q 633 1018 581 1031 q 733 982 686 1006 l 733 760 q 632 829 681 807 q 532 851 584 851 q 366 763 422 851 q 311 505 311 676 q 366 247 311 334 q 532 160 422 160 q 632 181 584 160 q 733 251 681 203 l 733 29 m 405 1109 l 256 1288 l 376 1288 l 511 1178 l 646 1288 l 767 1288 l 615 1109 l 405 1109 "},"x":{"x_min":37,"x_max":799,"ha":836,"o":"m 777 760 l 520 396 l 799 0 l 566 0 l 417 255 l 269 0 l 37 0 l 317 396 l 59 760 l 291 760 l 417 533 l 544 760 l 777 760 "},"è":{"x_min":62,"x_max":779,"ha":836,"o":"m 747 37 q 605 -5 677 8 q 454 -20 534 -20 q 162 82 263 -20 q 62 376 62 184 q 159 670 62 562 q 423 778 256 778 q 685 677 592 778 q 779 395 779 577 l 779 315 l 264 315 q 316 181 264 225 q 472 137 369 137 q 607 156 541 137 q 747 219 674 176 l 747 37 m 579 464 q 538 583 577 542 q 423 624 499 624 q 314 582 354 624 q 266 463 273 540 l 579 464 m 352 1111 l 544 856 l 410 856 l 161 1111 l 352 1111 "},"Ø":{"x_min":-4.0625,"x_max":827.265625,"ha":836,"o":"m 305 240 q 350 180 321 201 q 417 160 379 160 q 529 241 494 160 q 565 505 565 323 q 564 545 565 524 q 561 602 563 566 l 305 240 m 522 781 q 478 833 505 816 q 417 851 452 851 q 305 769 341 851 q 270 512 270 688 l 270 426 l 522 781 m 109 195 q 73 332 85 255 q 62 505 62 409 q 151 898 62 765 q 417 1031 241 1031 q 543 1009 487 1031 q 640 947 599 988 l 717 1057 l 827 979 l 720 827 q 759 683 746 764 q 773 505 773 602 q 683 112 773 245 q 417 -20 593 -20 q 287 2 345 -20 q 186 70 230 25 l 105 -43 l -4 34 l 109 195 "},"÷":{"x_min":45,"x_max":791,"ha":836,"o":"m 313 812 l 523 812 l 523 602 l 313 602 l 313 812 m 313 268 l 523 268 l 523 58 l 313 58 l 313 268 m 45 516 l 791 516 l 791 355 l 45 355 l 45 516 "},"h":{"x_min":117,"x_max":727,"ha":836,"o":"m 727 492 l 727 0 l 530 0 l 530 462 q 506 579 530 544 q 429 615 482 615 q 344 567 375 615 q 314 434 314 519 l 314 0 l 117 0 l 117 1055 l 314 1055 l 314 645 q 386 743 335 708 q 508 778 436 778 q 671 706 616 778 q 727 492 727 634 "},".":{"x_min":305,"x_max":532,"ha":836,"o":"m 305 249 l 532 249 l 532 0 l 305 0 l 305 249 "},"f":{"x_min":118,"x_max":734,"ha":836,"o":"m 501 825 l 501 760 l 734 760 l 734 607 l 501 607 l 501 0 l 302 0 l 302 607 l 118 607 l 118 760 l 302 760 l 302 812 q 359 1002 302 949 q 570 1055 416 1055 l 734 1055 l 734 902 l 578 902 q 518 885 534 902 q 501 825 502 869 "},"“":{"x_min":104,"x_max":733,"ha":836,"o":"m 316 612 l 104 612 l 104 795 l 236 1055 l 382 1055 l 316 795 l 316 612 m 668 612 l 456 612 l 456 795 l 589 1055 l 733 1055 l 668 795 l 668 612 "},"A":{"x_min":22,"x_max":814,"ha":836,"o":"m 417 829 l 323 415 l 512 415 l 417 829 m 295 1013 l 540 1013 l 814 0 l 613 0 l 551 250 l 283 250 l 222 0 l 22 0 l 295 1013 "},"O":{"x_min":62,"x_max":773,"ha":836,"o":"m 417 851 q 305 769 340 851 q 270 505 270 687 q 305 241 270 323 q 417 160 340 160 q 529 241 494 160 q 565 505 565 323 q 529 769 565 687 q 417 851 494 851 m 62 505 q 151 898 62 765 q 417 1031 241 1031 q 683 898 593 1031 q 773 505 773 765 q 683 112 773 245 q 417 -20 593 -20 q 151 112 241 -20 q 62 505 62 245 "},"π":{"x_min":9,"x_max":823,"ha":836,"o":"m 801 746 l 801 604 l 691 604 l 691 245 q 707 136 691 157 q 771 115 724 115 q 800 115 788 115 q 823 118 812 116 l 823 -9 q 759 -22 793 -18 q 688 -26 725 -26 q 596 -14 635 -26 q 537 18 557 -3 q 507 69 516 40 q 498 157 498 98 l 498 181 l 498 604 l 312 604 l 312 0 l 119 0 l 119 604 l 9 604 l 9 746 l 801 746 "},"‘":{"x_min":293,"x_max":572,"ha":836,"o":"m 505 612 l 293 612 l 293 795 l 426 1055 l 572 1055 l 505 795 l 505 612 "},"3":{"x_min":85,"x_max":746,"ha":836,"o":"m 372 453 l 265 453 l 265 629 l 372 629 q 487 658 446 629 q 529 741 529 688 q 487 829 529 797 q 372 861 446 861 q 250 846 315 861 q 116 806 185 832 l 116 988 q 253 1019 185 1008 q 383 1031 321 1031 q 632 961 543 1031 q 722 768 722 891 q 670 620 722 678 q 523 545 619 563 q 689 459 632 526 q 746 281 746 391 q 651 57 746 134 q 377 -20 557 -20 q 227 -7 301 -20 q 85 30 152 5 l 85 216 q 222 167 148 184 q 377 151 296 151 q 506 188 459 151 q 554 290 554 226 q 506 410 554 368 q 372 453 459 453 "},"9":{"x_min":75,"x_max":747,"ha":836,"o":"m 137 14 l 137 196 q 239 149 190 164 q 334 135 288 135 q 498 207 442 135 q 559 423 555 279 q 477 357 527 379 q 360 335 428 335 q 149 421 224 335 q 75 666 75 507 q 158 929 75 836 q 394 1022 241 1022 q 663 898 579 1022 q 747 498 747 774 q 644 105 747 236 q 337 -26 542 -26 q 239 -15 289 -26 q 137 14 188 -5 m 400 503 q 498 550 464 503 q 533 686 533 597 q 498 821 533 774 q 400 869 464 869 q 299 821 334 869 q 265 686 265 774 q 299 550 265 597 q 400 503 334 503 "},"l":{"x_min":61,"x_max":742,"ha":836,"o":"m 262 316 l 262 902 l 61 902 l 61 1055 l 461 1055 l 461 316 q 488 190 461 227 q 583 153 516 153 l 742 153 l 742 0 l 527 0 q 323 73 385 0 q 262 316 262 146 "},"4":{"x_min":69,"x_max":774,"ha":836,"o":"m 471 790 l 215 390 l 471 390 l 471 790 m 453 1013 l 663 1013 l 663 390 l 774 390 l 774 218 l 663 218 l 663 0 l 471 0 l 471 218 l 69 218 l 69 412 l 453 1013 "},"Ü":{"x_min":72,"x_max":764,"ha":836,"o":"m 72 373 l 72 1013 l 272 1013 l 272 323 q 310 204 272 247 q 418 161 349 161 q 525 204 486 161 q 564 323 564 247 l 564 1013 l 764 1013 l 764 373 q 681 73 764 167 q 418 -20 599 -20 q 154 73 236 -20 q 72 373 72 167 m 472 1288 l 632 1288 l 632 1121 l 472 1121 l 472 1288 m 204 1288 l 364 1288 l 364 1121 l 204 1121 l 204 1288 "},"à":{"x_min":64,"x_max":752,"ha":836,"o":"m 475 357 q 320 328 364 357 q 276 230 276 299 q 306 148 276 179 q 389 118 337 118 q 511 177 468 118 q 555 343 555 236 l 555 357 l 475 357 m 752 433 l 752 0 l 555 0 l 555 84 q 462 7 519 34 q 338 -20 406 -20 q 136 48 208 -20 q 64 240 64 117 q 150 436 64 373 q 417 500 236 500 l 555 500 l 555 532 q 520 606 555 581 q 417 631 485 631 q 278 612 345 631 q 139 555 211 594 l 139 725 q 273 765 204 752 q 417 778 341 778 q 677 702 602 778 q 752 433 752 627 m 326 1111 l 518 856 l 384 856 l 135 1111 l 326 1111 "},"ó":{"x_min":66,"x_max":769,"ha":836,"o":"m 509 1059 l 701 1059 l 451 856 l 318 856 l 509 1059 m 417 617 q 305 554 346 617 q 265 379 265 491 q 305 203 265 266 q 417 141 346 141 q 529 203 488 141 q 570 379 570 266 q 529 554 570 491 q 417 617 488 617 m 66 379 q 161 670 66 562 q 417 778 256 778 q 673 670 578 778 q 769 379 769 562 q 673 87 769 195 q 417 -20 578 -20 q 161 87 256 -20 q 66 379 66 195 "}}}
